<?xml version="1.0" encoding="utf-8"?>
<!-- Generator: Adobe Illustrator 28.3.0, SVG Export Plug-In . SVG Version: 6.00 Build 0)  -->
<svg version="1.1" id="Layer_1" xmlns="http://www.w3.org/2000/svg" xmlns:xlink="http://www.w3.org/1999/xlink" x="0px" y="0px"
	 viewBox="0 0 380.6 115" style="enable-background:new 0 0 380.6 115;" xml:space="preserve">
<style type="text/css">
	.st0{fill:#1A2C40;}
	.st1{clip-path:url(#SVGID_00000010285748557112550630000006225575919369213344_);}
	.st2{clip-path:url(#SVGID_00000042725763844866002720000000970752819463785899_);}
	.st3{clip-path:url(#SVGID_00000000200743760782593240000007506690118898341004_);}
	.st4{clip-path:url(#SVGID_00000018945721772830806570000014372231328045467532_);}
	.st5{clip-path:url(#SVGID_00000098207024495314512390000007019173034847960984_);}
	.st6{clip-path:url(#SVGID_00000121266060850355444860000016078904566137658042_);}
	.st7{fill:#FFFFFF;}
	.st8{fill:#EB3131;}
	.st9{fill:#F6B60B;}
	.st10{fill:#5778C5;}
	.st11{fill:#3BAD49;}
</style>
<path className="st0" d="M128.9,17.4c-0.4-1.7,0.4-3.3,1.3-4.5c0.9-1.4,2.5-2.6,4.3-3.1c-0.3,1.6-1.2,3-2.1,4.3
	C131.4,15.3,130.3,16.6,128.9,17.4z"/>
<path className="st0" d="M127.7,20.6c0.3-1.3,0.3-2.8,0-4c-0.3-1.1-0.6-2.7-1.9-3.2c-0.9,1.5-1.3,3.5-0.7,5c0.4,1.1,1.1,2.5,2.5,2.7
	c1.3,0.3,2.7-0.4,3.7-1c1.2-0.6,2.3-1.7,3-2.9c-1.3-0.6-2.7-0.1-3.8,0.4C129.3,18.1,128.2,19.3,127.7,20.6z"/>
<path className="st0" d="M123.6,24.2c0.6,1,1.7,2.2,3.1,2.2c1.3,0.1,2.5-0.8,3.4-1.6c1-0.8,1.9-2,2.2-3.3c-1.4-0.4-2.7,0.3-3.6,1
	c-1,0.7-1.8,2-2,3.4c0-1.4-0.4-2.8-1-3.9c-0.5-1-1.3-2.4-2.6-2.7C122.6,20.9,122.8,22.9,123.6,24.2z"/>
<path className="st0" d="M127.2,31.7c-1.4,0.2-2.7-0.6-3.5-1.6c-1.1-1.3-1.8-2.9-1.6-4.6c1.4,0,2.4,1.2,3.2,2.2c0.8,1,1.5,2.3,1.9,3.6
	c-0.1-1.3,0.3-2.8,1.1-3.6c0.8-0.9,1.9-1.8,3.3-1.6c0,1.3-0.7,2.6-1.4,3.6C129.5,30.4,128.5,31.5,127.2,31.7z"/>
<path className="st0" d="M124.7,36.2c1.2,0.8,2.8,1.6,4.4,1c1.3-0.5,2.1-1.8,2.6-3c0.5-1.3,0.9-2.8,0.7-4.2c-1.4,0.1-2.6,1.2-3.3,2.4
	c-0.7,1.3-0.8,2.9-0.3,4.2c-0.8-1.4-1.8-2.6-3-3.6c-1.1-1-2.6-2-4.1-1.8C121.9,33.2,123.1,35.2,124.7,36.2z"/>
<path className="st0" d="M132.2,42.3c1.2-0.7,1.7-2.3,1.9-3.6c0.2-1.4,0.2-3-0.4-4.4c-1.4,0.4-2.4,1.7-2.7,3.1c-0.3,1.5-0.1,3.1,0.8,4.3
	c-1.1-1.3-2.6-2.3-4-3c-1.4-0.7-3-1.6-4.7-1c0.8,1.9,2.5,3.7,4.3,4.5C129,42.7,130.7,43.3,132.2,42.3z"/>
<path className="st0" d="M138.1,42.8c0.2,1.4,0.2,3.1-0.9,4.2c-1.3,1.4-3.4,1.1-5,0.8c-2.1-0.4-4.6-1.9-5.9-3.8c1.6-0.9,3.5-0.3,5.1,0.1
	l0.1,0c1.7,0.5,3.6,1.3,5.2,2.4c-1.2-1.1-2.1-2.8-2.2-4.4c0-1.5,0.6-3.1,2-3.8C137.4,39.6,137.9,41.3,138.1,42.8z"/>
<path className="st0" d="M144.3,50.9c0.8-1.5,0-3.3-0.6-4.6c-0.7-1.5-1.7-3.1-3.2-4.2c-1.4,1.2-1.3,2.9-0.8,4.4c0.5,1.8,2.2,3.3,3.9,4.1
	c-2-0.8-4.3-1.2-6.4-1.3l-0.2,0c-1.7-0.1-3.9-0.3-5.3,1c2,1.7,4.9,2.7,7.5,2.7C141,52.9,143.3,52.7,144.3,50.9z"/>
<path className="st0" d="M167.3,18.7h-0.7l2.1-5.7h0.7l2.1,5.7h-0.7l-1.7-4.8h0L167.3,18.7z M167.6,16.5h2.9v0.6h-2.9V16.5z M172.2,20.3
	v-5.9h0.6v0.7h0.1c0-0.1,0.1-0.2,0.2-0.3c0.1-0.1,0.2-0.2,0.4-0.3c0.2-0.1,0.4-0.1,0.7-0.1c0.4,0,0.7,0.1,1,0.3
	c0.3,0.2,0.5,0.4,0.6,0.8c0.2,0.3,0.2,0.7,0.2,1.2c0,0.5-0.1,0.8-0.2,1.2c-0.2,0.3-0.4,0.6-0.6,0.8c-0.3,0.2-0.6,0.3-0.9,0.3
	c-0.3,0-0.5,0-0.7-0.1c-0.2-0.1-0.3-0.2-0.4-0.3c-0.1-0.1-0.2-0.2-0.2-0.3h-0.1v2.3H172.2z M172.8,16.6c0,0.3,0,0.6,0.1,0.9
	c0.1,0.2,0.2,0.4,0.4,0.6c0.2,0.1,0.4,0.2,0.7,0.2c0.3,0,0.5-0.1,0.7-0.2c0.2-0.1,0.3-0.3,0.4-0.6c0.1-0.2,0.1-0.5,0.1-0.8
	c0-0.3,0-0.6-0.1-0.8c-0.1-0.2-0.2-0.4-0.4-0.6c-0.2-0.1-0.4-0.2-0.7-0.2c-0.3,0-0.5,0.1-0.7,0.2c-0.2,0.1-0.3,0.3-0.4,0.6
	C172.9,16,172.8,16.3,172.8,16.6z M176.8,20.3v-5.9h0.6v0.7h0.1c0-0.1,0.1-0.2,0.2-0.3c0.1-0.1,0.2-0.2,0.4-0.3
	c0.2-0.1,0.4-0.1,0.7-0.1c0.4,0,0.7,0.1,1,0.3c0.3,0.2,0.5,0.4,0.6,0.8c0.2,0.3,0.2,0.7,0.2,1.2c0,0.5-0.1,0.8-0.2,1.2
	c-0.2,0.3-0.4,0.6-0.6,0.8c-0.3,0.2-0.6,0.3-0.9,0.3c-0.3,0-0.5,0-0.7-0.1c-0.2-0.1-0.3-0.2-0.4-0.3c-0.1-0.1-0.2-0.2-0.2-0.3h-0.1
	v2.3H176.8z M177.5,16.6c0,0.3,0,0.6,0.1,0.9c0.1,0.2,0.2,0.4,0.4,0.6c0.2,0.1,0.4,0.2,0.7,0.2c0.3,0,0.5-0.1,0.7-0.2
	c0.2-0.1,0.3-0.3,0.4-0.6c0.1-0.2,0.1-0.5,0.1-0.8c0-0.3,0-0.6-0.1-0.8c-0.1-0.2-0.2-0.4-0.4-0.6c-0.2-0.1-0.4-0.2-0.7-0.2
	c-0.3,0-0.5,0.1-0.7,0.2c-0.2,0.1-0.3,0.3-0.4,0.6C177.5,16,177.5,16.3,177.5,16.6z M182.1,13v5.7h-0.7V13H182.1z M184.9,18.8
	c-0.4,0-0.8-0.1-1.1-0.3c-0.3-0.2-0.5-0.4-0.7-0.8c-0.2-0.3-0.2-0.7-0.2-1.2c0-0.4,0.1-0.8,0.2-1.2c0.2-0.3,0.4-0.6,0.7-0.8
	c0.3-0.2,0.6-0.3,1-0.3c0.2,0,0.4,0,0.7,0.1c0.2,0.1,0.4,0.2,0.6,0.4c0.2,0.2,0.3,0.4,0.4,0.7c0.1,0.3,0.2,0.6,0.2,1v0.3h-3.3v-0.6
	h2.6c0-0.2,0-0.5-0.1-0.6c-0.1-0.2-0.2-0.3-0.4-0.4c-0.2-0.1-0.4-0.2-0.6-0.2c-0.3,0-0.5,0.1-0.7,0.2c-0.2,0.1-0.3,0.3-0.4,0.5
	c-0.1,0.2-0.2,0.4-0.2,0.7v0.4c0,0.3,0.1,0.6,0.2,0.8c0.1,0.2,0.3,0.4,0.5,0.5c0.2,0.1,0.4,0.2,0.7,0.2c0.2,0,0.3,0,0.5-0.1
	c0.1-0.1,0.3-0.1,0.4-0.2c0.1-0.1,0.2-0.2,0.2-0.4l0.6,0.2c-0.1,0.2-0.2,0.4-0.3,0.6c-0.2,0.2-0.4,0.3-0.6,0.4
	C185.5,18.8,185.2,18.8,184.9,18.8z"/>
<path className="st0" d="M151.9,33.5h-1.5l2.8-8h1.8l2.8,8h-1.5l-2.1-6.4H154L151.9,33.5z M151.9,30.4h4.2v1.2h-4.2V30.4z M158.5,35.8
	v-8.2h1.4v1h0.1c0.1-0.1,0.2-0.3,0.3-0.5c0.1-0.2,0.3-0.3,0.5-0.4c0.2-0.1,0.5-0.2,0.9-0.2c0.5,0,0.9,0.1,1.3,0.4
	c0.4,0.2,0.7,0.6,0.9,1c0.2,0.5,0.3,1,0.3,1.7c0,0.7-0.1,1.2-0.3,1.7c-0.2,0.5-0.5,0.8-0.9,1.1c-0.4,0.2-0.8,0.4-1.3,0.4
	c-0.3,0-0.6-0.1-0.9-0.2c-0.2-0.1-0.4-0.3-0.5-0.4c-0.1-0.2-0.2-0.3-0.3-0.5H160v3.2H158.5z M159.9,30.5c0,0.4,0.1,0.7,0.2,1
	c0.1,0.3,0.3,0.5,0.5,0.7c0.2,0.2,0.5,0.2,0.8,0.2c0.3,0,0.6-0.1,0.8-0.2c0.2-0.2,0.4-0.4,0.5-0.7c0.1-0.3,0.2-0.6,0.2-1
	c0-0.4-0.1-0.7-0.2-1c-0.1-0.3-0.3-0.5-0.5-0.7c-0.2-0.2-0.5-0.2-0.8-0.2c-0.3,0-0.6,0.1-0.8,0.2c-0.2,0.2-0.4,0.4-0.5,0.7
	C160,29.8,159.9,30.1,159.9,30.5z M165.2,35.8v-8.2h1.4v1h0.1c0.1-0.1,0.2-0.3,0.3-0.5c0.1-0.2,0.3-0.3,0.5-0.4
	c0.2-0.1,0.5-0.2,0.9-0.2c0.5,0,0.9,0.1,1.3,0.4c0.4,0.2,0.7,0.6,0.9,1c0.2,0.5,0.3,1,0.3,1.7c0,0.7-0.1,1.2-0.3,1.7
	c-0.2,0.5-0.5,0.8-0.9,1.1c-0.4,0.2-0.8,0.4-1.3,0.4c-0.3,0-0.6-0.1-0.9-0.2c-0.2-0.1-0.4-0.3-0.5-0.4c-0.1-0.2-0.2-0.3-0.3-0.5
	h-0.1v3.2H165.2z M166.6,30.5c0,0.4,0.1,0.7,0.2,1c0.1,0.3,0.3,0.5,0.5,0.7c0.2,0.2,0.5,0.2,0.8,0.2c0.3,0,0.6-0.1,0.8-0.2
	c0.2-0.2,0.4-0.4,0.5-0.7c0.1-0.3,0.2-0.6,0.2-1c0-0.4-0.1-0.7-0.2-1c-0.1-0.3-0.3-0.5-0.5-0.7c-0.2-0.2-0.5-0.2-0.8-0.2
	c-0.3,0-0.6,0.1-0.8,0.2c-0.2,0.2-0.4,0.4-0.5,0.7C166.6,29.8,166.6,30.1,166.6,30.5z M177,33.6c-0.6,0-1.1-0.1-1.5-0.4
	c-0.4-0.3-0.8-0.6-1-1.1c-0.2-0.5-0.4-1-0.4-1.6c0-0.6,0.1-1.2,0.4-1.6c0.2-0.5,0.6-0.8,1-1.1c0.4-0.3,0.9-0.4,1.5-0.4
	s1.1,0.1,1.5,0.4c0.4,0.3,0.8,0.6,1,1.1c0.2,0.5,0.4,1,0.4,1.6c0,0.6-0.1,1.2-0.4,1.6c-0.2,0.5-0.6,0.8-1,1.1
	C178.1,33.5,177.6,33.6,177,33.6z M177,32.5c0.3,0,0.6-0.1,0.8-0.3c0.2-0.2,0.4-0.4,0.5-0.7c0.1-0.3,0.2-0.6,0.2-1
	c0-0.4-0.1-0.7-0.2-1c-0.1-0.3-0.3-0.5-0.5-0.7c-0.2-0.2-0.5-0.3-0.8-0.3c-0.3,0-0.6,0.1-0.8,0.3c-0.2,0.2-0.4,0.4-0.5,0.7
	c-0.1,0.3-0.2,0.6-0.2,1c0,0.4,0.1,0.7,0.2,1c0.1,0.3,0.3,0.5,0.5,0.7C176.4,32.4,176.7,32.5,177,32.5z M183.9,27.5v1.1h-3.5v-1.1
	H183.9z M181.2,33.5v-6.6c0-0.4,0.1-0.7,0.2-1c0.2-0.3,0.4-0.5,0.7-0.6s0.6-0.2,0.9-0.2c0.2,0,0.5,0,0.7,0.1c0.2,0,0.3,0.1,0.4,0.1
	l-0.3,1.1c-0.1,0-0.1,0-0.2-0.1c-0.1,0-0.2,0-0.3,0c-0.3,0-0.4,0.1-0.6,0.2c-0.1,0.1-0.2,0.3-0.2,0.5v6.5H181.2z M190.3,27.5v1.1
	h-3.4v-1.1H190.3z M187.7,26.1h1.4v5.6c0,0.2,0,0.3,0.1,0.4c0.1,0.1,0.1,0.2,0.2,0.2c0.1,0,0.2,0.1,0.3,0.1c0.1,0,0.2,0,0.2,0
	c0.1,0,0.1,0,0.2,0l0.2,1.1c-0.1,0-0.2,0.1-0.3,0.1c-0.1,0-0.3,0-0.5,0.1c-0.4,0-0.7,0-1-0.2c-0.3-0.1-0.5-0.3-0.7-0.6
	c-0.2-0.2-0.2-0.6-0.2-0.9V26.1z M192.8,30v3.5h-1.4v-8h1.4v3h0.1c0.1-0.3,0.4-0.6,0.7-0.8c0.3-0.2,0.7-0.3,1.1-0.3
	c0.4,0,0.8,0.1,1.1,0.3s0.5,0.4,0.7,0.8c0.2,0.3,0.3,0.7,0.3,1.2v3.8h-1.4v-3.6c0-0.4-0.1-0.7-0.3-0.9c-0.2-0.2-0.5-0.3-0.9-0.3
	c-0.2,0-0.5,0.1-0.7,0.2c-0.2,0.1-0.3,0.3-0.5,0.5C192.8,29.5,192.8,29.7,192.8,30z M200.5,33.6c-0.6,0-1.1-0.1-1.6-0.4
	c-0.4-0.3-0.8-0.6-1-1.1c-0.2-0.5-0.4-1-0.4-1.6c0-0.6,0.1-1.2,0.4-1.6c0.2-0.5,0.6-0.8,1-1.1c0.4-0.3,0.9-0.4,1.5-0.4
	c0.4,0,0.7,0.1,1,0.2c0.3,0.1,0.6,0.3,0.9,0.5c0.3,0.2,0.5,0.6,0.6,0.9c0.1,0.4,0.2,0.8,0.2,1.4v0.4h-4.9v-1h3.6
	c0-0.3-0.1-0.5-0.2-0.7c-0.1-0.2-0.3-0.4-0.5-0.5c-0.2-0.1-0.4-0.2-0.7-0.2c-0.3,0-0.5,0.1-0.8,0.2c-0.2,0.1-0.4,0.3-0.5,0.5
	c-0.1,0.2-0.2,0.5-0.2,0.7v0.8c0,0.3,0.1,0.6,0.2,0.9c0.1,0.2,0.3,0.4,0.5,0.6c0.2,0.1,0.5,0.2,0.8,0.2c0.2,0,0.4,0,0.6-0.1
	c0.2-0.1,0.3-0.1,0.4-0.3c0.1-0.1,0.2-0.3,0.3-0.4l1.3,0.1c-0.1,0.3-0.2,0.7-0.5,0.9c-0.2,0.3-0.5,0.5-0.9,0.6
	C201.4,33.6,201,33.6,200.5,33.6z M170.3,49.5h-2.7v-8h2.8c0.8,0,1.5,0.2,2,0.5c0.6,0.3,1,0.8,1.3,1.4c0.3,0.6,0.5,1.3,0.5,2.1
	c0,0.8-0.2,1.5-0.5,2.1c-0.3,0.6-0.8,1.1-1.3,1.4C171.8,49.3,171.1,49.5,170.3,49.5z M169,48.3h1.2c0.6,0,1-0.1,1.4-0.3
	c0.4-0.2,0.7-0.5,0.8-0.9c0.2-0.4,0.3-0.9,0.3-1.5s-0.1-1.1-0.3-1.5c-0.2-0.4-0.5-0.7-0.8-0.9c-0.4-0.2-0.8-0.3-1.4-0.3H169V48.3z
	 M177,49.6c-0.4,0-0.7-0.1-1-0.2c-0.3-0.1-0.5-0.3-0.7-0.6c-0.2-0.3-0.3-0.6-0.3-1c0-0.3,0.1-0.6,0.2-0.8c0.1-0.2,0.3-0.4,0.5-0.5
	s0.5-0.2,0.7-0.3c0.3-0.1,0.6-0.1,0.8-0.2c0.4,0,0.6-0.1,0.9-0.1c0.2,0,0.4-0.1,0.5-0.1c0.1-0.1,0.2-0.2,0.2-0.3v0
	c0-0.3-0.1-0.5-0.3-0.7c-0.2-0.2-0.4-0.2-0.8-0.2c-0.3,0-0.6,0.1-0.8,0.2c-0.2,0.2-0.3,0.3-0.4,0.5l-1.3-0.2
	c0.1-0.4,0.3-0.7,0.5-0.9c0.2-0.2,0.5-0.4,0.9-0.6c0.3-0.1,0.7-0.2,1.1-0.2c0.3,0,0.6,0,0.9,0.1c0.3,0.1,0.5,0.2,0.8,0.3
	c0.2,0.2,0.4,0.4,0.6,0.6c0.1,0.3,0.2,0.6,0.2,1v4h-1.4v-0.8h0c-0.1,0.2-0.2,0.3-0.4,0.5c-0.2,0.1-0.3,0.3-0.6,0.3
	C177.6,49.6,177.3,49.6,177,49.6z M177.4,48.6c0.3,0,0.5-0.1,0.7-0.2c0.2-0.1,0.4-0.3,0.5-0.5c0.1-0.2,0.2-0.4,0.2-0.6v-0.7
	c0,0-0.1,0.1-0.2,0.1c-0.1,0-0.2,0.1-0.4,0.1c-0.1,0-0.3,0-0.4,0.1c-0.1,0-0.2,0-0.3,0c-0.2,0-0.4,0.1-0.6,0.1
	c-0.2,0.1-0.3,0.2-0.4,0.3c-0.1,0.1-0.1,0.3-0.1,0.4c0,0.3,0.1,0.5,0.3,0.6S177.1,48.6,177.4,48.6z M182,51.8c-0.2,0-0.4,0-0.5,0
	c-0.2,0-0.3-0.1-0.4-0.1l0.3-1.1c0.2,0.1,0.4,0.1,0.6,0.1c0.2,0,0.3-0.1,0.4-0.2c0.1-0.1,0.2-0.3,0.3-0.5l0.1-0.3l-2.2-6.1h1.5
	l1.4,4.5h0.1l1.4-4.5h1.5l-2.4,6.7c-0.1,0.3-0.3,0.6-0.4,0.8c-0.2,0.2-0.4,0.4-0.7,0.5C182.7,51.7,182.4,51.8,182,51.8z"/>
<path className="st0" d="M223.4,12.8c0.9,1.3,1.7,2.8,1.3,4.5c-1.4-0.8-2.5-2.1-3.4-3.4c-0.9-1.3-1.8-2.7-2.1-4.3
	C220.9,10.2,222.5,11.4,223.4,12.8z"/>
<path className="st0" d="M225.9,20.6c-0.5-1.3-1.6-2.5-2.8-3c-1.1-0.5-2.5-1-3.8-0.4c0.7,1.2,1.8,2.2,3,2.9c1.1,0.6,2.4,1.3,3.7,1
	c1.4-0.2,2.1-1.7,2.5-2.7c0.5-1.5,0.2-3.5-0.7-5c-1.3,0.5-1.6,2.1-1.9,3.2C225.6,17.8,225.6,19.3,225.9,20.6z"/>
<path className="st0" d="M224.9,22.5c1,0.7,1.8,2,2,3.4c0-1.4,0.4-2.8,1-3.9c0.5-1,1.3-2.4,2.6-2.7c0.5,1.6,0.4,3.6-0.5,4.9
	c-0.6,1-1.7,2.2-3.1,2.2c-1.3,0.1-2.5-0.8-3.4-1.6c-1-0.8-1.9-2-2.2-3.3C222.6,21.1,223.9,21.8,224.9,22.5z"/>
<path className="st0" d="M226.5,31.3c0.1-1.3-0.3-2.8-1.1-3.7c-0.8-0.9-1.9-1.8-3.3-1.6c0,1.3,0.7,2.6,1.4,3.6c0.6,0.9,1.6,2,3,2.2
	c1.4,0.2,2.7-0.6,3.5-1.6c1.1-1.3,1.8-2.9,1.6-4.6c-1.4,0-2.5,1.2-3.2,2.1C227.5,28.6,226.8,29.9,226.5,31.3z"/>
<path className="st0" d="M224.5,32.5c0.7,1.3,0.8,2.9,0.3,4.2c0.8-1.4,1.9-2.6,3-3.6c1.1-1,2.6-2,4.1-1.8c-0.3,1.9-1.5,3.9-3,4.9
	c-1.2,0.8-2.8,1.6-4.4,1c-1.3-0.5-2.1-1.8-2.7-3c-0.5-1.3-0.9-2.8-0.6-4.2C222.7,30.2,223.9,31.2,224.5,32.5z"/>
<path className="st0" d="M221.7,41.8c0.8-1.3,1.1-2.8,0.8-4.3c-0.3-1.4-1.3-2.7-2.7-3.1c-0.6,1.4-0.6,2.9-0.4,4.4
	c0.2,1.3,0.7,2.9,1.9,3.6c1.5,1,3.3,0.4,4.7-0.2c1.9-0.7,3.6-2.5,4.3-4.4c-1.6-0.5-3.3,0.3-4.7,1C224.3,39.5,222.8,40.5,221.7,41.8z
	"/>
<path className="st0" d="M215.5,42.8c-0.2,1.4-0.2,3.1,0.9,4.2c1.3,1.4,3.4,1.1,5,0.8c2.1-0.4,4.6-1.9,5.9-3.8c-1.6-0.9-3.5-0.3-5.1,0.1
	l-0.1,0c-1.7,0.5-3.6,1.3-5.2,2.4c1.2-1.1,2.1-2.8,2.2-4.4c0-1.5-0.6-3.1-2-3.8C216.1,39.6,215.7,41.3,215.5,42.8z"/>
<path className="st0" d="M214.3,52.9c-1.7,0-4.1-0.2-5-2l0,0c-0.8-1.5,0-3.2,0.6-4.5c0.7-1.5,1.7-3.1,3.2-4.2c1.4,1.2,1.2,2.9,0.8,4.4
	c-0.5,1.8-2.2,3.3-3.9,4.1c2-0.8,4.3-1.2,6.4-1.3l0.2,0c1.7-0.1,3.9-0.3,5.3,1C219.7,52,216.8,53,214.3,52.9z"/>
<path className="st0" d="M269.2,17.4c-0.4-1.7,0.4-3.3,1.3-4.5c0.9-1.4,2.5-2.6,4.3-3.1c-0.3,1.6-1.2,3-2.1,4.3
	C271.7,15.3,270.5,16.6,269.2,17.4z"/>
<path className="st0" d="M267.9,20.6c0.3-1.3,0.3-2.8,0-4c-0.3-1.1-0.6-2.7-1.9-3.2c-0.9,1.5-1.3,3.5-0.7,5c0.4,1.1,1.1,2.5,2.5,2.7
	c1.3,0.3,2.7-0.4,3.7-1c1.2-0.6,2.3-1.7,3-2.9c-1.3-0.6-2.7-0.1-3.8,0.4C269.5,18.1,268.4,19.3,267.9,20.6z"/>
<path className="st0" d="M263.9,24.2c0.6,1,1.7,2.2,3.1,2.2c1.3,0.1,2.5-0.8,3.4-1.6c1-0.8,1.9-2,2.2-3.3c-1.4-0.4-2.7,0.3-3.6,1
	c-1,0.7-1.8,2-2,3.4c0-1.4-0.4-2.8-1-3.9c-0.5-1-1.3-2.4-2.6-2.7C262.8,20.9,263,22.9,263.9,24.2z"/>
<path className="st0" d="M267.4,31.7c-1.4,0.2-2.7-0.6-3.5-1.6c-1.1-1.3-1.8-2.9-1.6-4.6c1.4,0,2.5,1.2,3.2,2.2c0.8,1,1.5,2.3,1.9,3.6
	c-0.1-1.3,0.3-2.8,1.1-3.6c0.8-0.9,1.9-1.8,3.3-1.6c0,1.3-0.7,2.6-1.4,3.6C269.7,30.4,268.7,31.5,267.4,31.7z"/>
<path className="st0" d="M264.9,36.2c1.2,0.8,2.8,1.6,4.4,1c1.3-0.5,2.1-1.8,2.6-3c0.5-1.3,0.9-2.8,0.7-4.2c-1.4,0.1-2.6,1.2-3.3,2.4
	c-0.7,1.3-0.8,2.9-0.3,4.2c-0.8-1.4-1.8-2.6-3-3.6c-1.1-1-2.6-2-4.1-1.8C262.2,33.2,263.4,35.2,264.9,36.2z"/>
<path className="st0" d="M272.5,42.3c1.2-0.7,1.7-2.3,1.9-3.6c0.2-1.4,0.2-3-0.4-4.4c-1.4,0.4-2.4,1.7-2.7,3.1c-0.3,1.5-0.1,3.1,0.8,4.3
	c-1.1-1.3-2.6-2.3-4-3c-1.4-0.7-3-1.6-4.7-1c0.8,1.9,2.5,3.7,4.3,4.5C269.2,42.7,271,43.3,272.5,42.3z"/>
<path className="st0" d="M278.3,42.8c0.2,1.4,0.2,3.1-0.9,4.2c-1.3,1.4-3.4,1.1-5,0.8c-2.1-0.4-4.6-1.9-5.9-3.8c1.6-0.9,3.5-0.3,5.1,0.1
	l0.1,0c1.7,0.5,3.6,1.3,5.2,2.4c-1.2-1.1-2.1-2.8-2.2-4.4c0-1.5,0.6-3.1,2-3.8C277.7,39.6,278.1,41.3,278.3,42.8z"/>
<path className="st0" d="M284.5,50.9c0.8-1.5,0-3.3-0.6-4.6c-0.7-1.5-1.7-3.1-3.2-4.2c-1.4,1.2-1.3,2.9-0.8,4.4c0.5,1.8,2.2,3.3,3.9,4.1
	c-2-0.8-4.3-1.2-6.4-1.3l-0.2,0c-1.7-0.1-3.9-0.3-5.3,1c2,1.7,4.9,2.7,7.5,2.7C281.2,52.9,283.6,52.7,284.5,50.9z"/>
<path className="st0" d="M299.5,18.7v-6.6h2.3c0.5,0,0.8,0.1,1.1,0.2c0.3,0.2,0.5,0.4,0.7,0.6c0.1,0.3,0.2,0.6,0.2,0.9
	c0,0.3-0.1,0.5-0.2,0.7c-0.1,0.2-0.2,0.3-0.4,0.4c-0.2,0.1-0.3,0.2-0.5,0.2v0.1c0.2,0,0.4,0.1,0.6,0.2c0.2,0.1,0.4,0.3,0.5,0.6
	c0.1,0.2,0.2,0.5,0.2,0.9c0,0.3-0.1,0.6-0.2,0.9c-0.2,0.3-0.4,0.5-0.7,0.6c-0.3,0.2-0.7,0.2-1.3,0.2H299.5z M300.3,18h1.6
	c0.5,0,0.9-0.1,1.1-0.3c0.2-0.2,0.3-0.5,0.3-0.7c0-0.2-0.1-0.4-0.2-0.6c-0.1-0.2-0.3-0.3-0.5-0.5c-0.2-0.1-0.5-0.2-0.7-0.2h-1.6V18z
	 M300.3,15h1.5c0.2,0,0.5,0,0.7-0.1c0.2-0.1,0.4-0.2,0.5-0.4c0.1-0.2,0.2-0.4,0.2-0.6c0-0.3-0.1-0.5-0.3-0.7c-0.2-0.2-0.5-0.3-1-0.3
	h-1.5V15z M307.2,18.8c-0.5,0-0.9-0.1-1.2-0.3c-0.3-0.2-0.6-0.5-0.8-0.9c-0.2-0.4-0.3-0.8-0.3-1.3c0-0.5,0.1-1,0.3-1.3
	c0.2-0.4,0.4-0.7,0.8-0.9c0.3-0.2,0.7-0.3,1.2-0.3c0.3,0,0.5,0,0.8,0.1c0.3,0.1,0.5,0.2,0.7,0.4c0.2,0.2,0.4,0.4,0.5,0.8
	c0.1,0.3,0.2,0.7,0.2,1.2v0.3h-3.8v-0.7h3c0-0.3-0.1-0.5-0.2-0.7c-0.1-0.2-0.3-0.4-0.5-0.5c-0.2-0.1-0.4-0.2-0.7-0.2
	c-0.3,0-0.6,0.1-0.8,0.2c-0.2,0.1-0.4,0.3-0.5,0.6c-0.1,0.2-0.2,0.5-0.2,0.8v0.4c0,0.4,0.1,0.7,0.2,1c0.1,0.3,0.3,0.5,0.5,0.6
	c0.2,0.1,0.5,0.2,0.8,0.2c0.2,0,0.4,0,0.5-0.1c0.2-0.1,0.3-0.1,0.4-0.3c0.1-0.1,0.2-0.3,0.3-0.4l0.7,0.2c-0.1,0.2-0.2,0.5-0.4,0.7
	c-0.2,0.2-0.4,0.3-0.7,0.4C307.8,18.8,307.5,18.8,307.2,18.8z M313.7,14.9l-0.7,0.2c0-0.1-0.1-0.2-0.2-0.3c-0.1-0.1-0.2-0.2-0.3-0.3
	c-0.1-0.1-0.3-0.1-0.5-0.1c-0.3,0-0.6,0.1-0.8,0.2c-0.2,0.1-0.3,0.3-0.3,0.5c0,0.2,0.1,0.3,0.2,0.4c0.1,0.1,0.4,0.2,0.6,0.3l0.7,0.2
	c0.4,0.1,0.8,0.3,1,0.5c0.2,0.2,0.3,0.5,0.3,0.8c0,0.3-0.1,0.5-0.2,0.8c-0.2,0.2-0.4,0.4-0.7,0.5c-0.3,0.1-0.6,0.2-1,0.2
	c-0.5,0-0.9-0.1-1.3-0.3c-0.3-0.2-0.5-0.5-0.6-1l0.7-0.2c0.1,0.3,0.2,0.5,0.4,0.6c0.2,0.1,0.4,0.2,0.8,0.2c0.4,0,0.6-0.1,0.8-0.2
	c0.2-0.2,0.3-0.3,0.3-0.5c0-0.2-0.1-0.3-0.2-0.4c-0.1-0.1-0.3-0.2-0.6-0.3l-0.8-0.2c-0.5-0.1-0.8-0.3-1-0.5
	c-0.2-0.2-0.3-0.5-0.3-0.9c0-0.3,0.1-0.5,0.2-0.7c0.2-0.2,0.4-0.4,0.7-0.5c0.3-0.1,0.6-0.2,0.9-0.2c0.5,0,0.9,0.1,1.2,0.3
	C313.4,14.2,313.6,14.5,313.7,14.9z M316.9,13.8v0.6h-2.6v-0.6H316.9z M315.1,12.6h0.8v4.7c0,0.2,0,0.4,0.1,0.5
	c0.1,0.1,0.1,0.2,0.2,0.2c0.1,0,0.2,0.1,0.3,0.1c0.1,0,0.2,0,0.2,0c0.1,0,0.1,0,0.1,0l0.2,0.7c-0.1,0-0.1,0-0.2,0.1
	c-0.1,0-0.2,0-0.4,0c-0.2,0-0.4,0-0.6-0.1c-0.2-0.1-0.4-0.2-0.5-0.4c-0.1-0.2-0.2-0.4-0.2-0.7V12.6z M322.3,18.8
	c-0.4,0-0.8-0.1-1.2-0.3c-0.3-0.2-0.6-0.5-0.8-0.9c-0.2-0.4-0.3-0.8-0.3-1.3c0-0.5,0.1-1,0.3-1.4c0.2-0.4,0.5-0.7,0.8-0.9
	c0.3-0.2,0.7-0.3,1.2-0.3c0.4,0,0.8,0.1,1.2,0.3c0.3,0.2,0.6,0.5,0.8,0.9c0.2,0.4,0.3,0.8,0.3,1.4c0,0.5-0.1,1-0.3,1.3
	c-0.2,0.4-0.4,0.7-0.8,0.9C323.1,18.7,322.7,18.8,322.3,18.8z M322.3,18.1c0.3,0,0.6-0.1,0.8-0.3s0.4-0.4,0.5-0.7
	c0.1-0.3,0.2-0.6,0.2-0.9c0-0.3-0.1-0.6-0.2-0.9c-0.1-0.3-0.3-0.5-0.5-0.7c-0.2-0.2-0.5-0.3-0.8-0.3c-0.3,0-0.6,0.1-0.8,0.3
	c-0.2,0.2-0.4,0.4-0.5,0.7c-0.1,0.3-0.2,0.6-0.2,0.9c0,0.3,0.1,0.6,0.2,0.9c0.1,0.3,0.3,0.5,0.5,0.7C321.7,18.1,322,18.1,322.3,18.1
	z M327.7,13.8v0.6h-2.7v-0.6H327.7z M325.9,18.7v-5.6c0-0.3,0.1-0.5,0.2-0.7c0.1-0.2,0.3-0.3,0.5-0.4c0.2-0.1,0.4-0.1,0.7-0.1
	c0.2,0,0.3,0,0.5,0c0.1,0,0.2,0.1,0.3,0.1l-0.2,0.7c0,0-0.1,0-0.2,0c-0.1,0-0.2,0-0.3,0c-0.3,0-0.4,0.1-0.5,0.2
	c-0.1,0.1-0.2,0.3-0.2,0.6v5.5H325.9z M333.2,13.8v0.6h-2.6v-0.6H333.2z M331.3,12.6h0.8v4.7c0,0.2,0,0.4,0.1,0.5
	c0.1,0.1,0.1,0.2,0.2,0.2c0.1,0,0.2,0.1,0.3,0.1c0.1,0,0.2,0,0.2,0c0.1,0,0.1,0,0.1,0l0.2,0.7c-0.1,0-0.1,0-0.2,0.1
	c-0.1,0-0.2,0-0.4,0c-0.2,0-0.4,0-0.6-0.1c-0.2-0.1-0.4-0.2-0.5-0.4c-0.1-0.2-0.2-0.4-0.2-0.7V12.6z M335,15.7v3h-0.8v-6.6h0.8v2.4
	h0.1c0.1-0.3,0.3-0.5,0.5-0.6c0.2-0.2,0.5-0.2,0.9-0.2c0.3,0,0.6,0.1,0.9,0.2c0.3,0.1,0.5,0.3,0.6,0.6c0.1,0.3,0.2,0.6,0.2,1.1v3.2
	h-0.8v-3.1c0-0.4-0.1-0.7-0.3-0.9c-0.2-0.2-0.5-0.3-0.8-0.3c-0.2,0-0.5,0.1-0.7,0.2c-0.2,0.1-0.4,0.3-0.5,0.5
	C335,15.2,335,15.5,335,15.7z M341.5,18.8c-0.5,0-0.9-0.1-1.2-0.3c-0.3-0.2-0.6-0.5-0.8-0.9c-0.2-0.4-0.3-0.8-0.3-1.3
	c0-0.5,0.1-1,0.3-1.3c0.2-0.4,0.4-0.7,0.8-0.9c0.3-0.2,0.7-0.3,1.2-0.3c0.3,0,0.5,0,0.8,0.1c0.3,0.1,0.5,0.2,0.7,0.4
	c0.2,0.2,0.4,0.4,0.5,0.8c0.1,0.3,0.2,0.7,0.2,1.2v0.3h-3.8v-0.7h3c0-0.3-0.1-0.5-0.2-0.7c-0.1-0.2-0.3-0.4-0.5-0.5
	c-0.2-0.1-0.4-0.2-0.7-0.2c-0.3,0-0.6,0.1-0.8,0.2c-0.2,0.1-0.4,0.3-0.5,0.6c-0.1,0.2-0.2,0.5-0.2,0.8v0.4c0,0.4,0.1,0.7,0.2,1
	c0.1,0.3,0.3,0.5,0.5,0.6c0.2,0.1,0.5,0.2,0.8,0.2c0.2,0,0.4,0,0.5-0.1c0.2-0.1,0.3-0.1,0.4-0.3c0.1-0.1,0.2-0.3,0.3-0.4l0.7,0.2
	c-0.1,0.2-0.2,0.5-0.4,0.7c-0.2,0.2-0.4,0.3-0.7,0.4C342.1,18.8,341.8,18.8,341.5,18.8z"/>
<path className="st0" d="M291.7,35.1h-1.9l3.5-9.9h2.2l3.5,9.9h-1.9l-2.6-7.9h-0.1L291.7,35.1z M291.8,31.2h5.2v1.4h-5.2V31.2z
	 M300,37.9V27.7h1.7v1.2h0.1c0.1-0.2,0.2-0.4,0.4-0.6c0.2-0.2,0.4-0.4,0.7-0.5c0.3-0.1,0.6-0.2,1.1-0.2c0.6,0,1.1,0.1,1.6,0.4
	c0.5,0.3,0.8,0.7,1.1,1.3c0.3,0.6,0.4,1.3,0.4,2.1c0,0.8-0.1,1.5-0.4,2.1c-0.3,0.6-0.6,1-1.1,1.3c-0.5,0.3-1,0.5-1.6,0.5
	c-0.4,0-0.8-0.1-1.1-0.2c-0.3-0.1-0.5-0.3-0.7-0.5c-0.2-0.2-0.3-0.4-0.4-0.6h-0.1v4H300z M301.7,31.4c0,0.5,0.1,0.9,0.2,1.3
	c0.1,0.4,0.3,0.6,0.6,0.8c0.3,0.2,0.6,0.3,1,0.3c0.4,0,0.7-0.1,1-0.3c0.3-0.2,0.5-0.5,0.6-0.9c0.1-0.4,0.2-0.8,0.2-1.2
	c0-0.5-0.1-0.9-0.2-1.2c-0.1-0.4-0.3-0.6-0.6-0.8c-0.3-0.2-0.6-0.3-1-0.3c-0.4,0-0.7,0.1-1,0.3c-0.3,0.2-0.5,0.5-0.6,0.8
	C301.7,30.5,301.7,30.9,301.7,31.4z M308.2,37.9V27.7h1.7v1.2h0.1c0.1-0.2,0.2-0.4,0.4-0.6c0.2-0.2,0.4-0.4,0.7-0.5
	c0.3-0.1,0.6-0.2,1.1-0.2c0.6,0,1.1,0.1,1.6,0.4c0.5,0.3,0.8,0.7,1.1,1.3c0.3,0.6,0.4,1.3,0.4,2.1c0,0.8-0.1,1.5-0.4,2.1
	c-0.3,0.6-0.6,1-1.1,1.3c-0.5,0.3-1,0.5-1.6,0.5c-0.4,0-0.8-0.1-1.1-0.2c-0.3-0.1-0.5-0.3-0.7-0.5c-0.2-0.2-0.3-0.4-0.4-0.6H310v4
	H308.2z M309.9,31.4c0,0.5,0.1,0.9,0.2,1.3c0.1,0.4,0.3,0.6,0.6,0.8c0.3,0.2,0.6,0.3,0.9,0.3c0.4,0,0.7-0.1,1-0.3
	c0.3-0.2,0.5-0.5,0.6-0.9c0.1-0.4,0.2-0.8,0.2-1.2c0-0.5-0.1-0.9-0.2-1.2c-0.1-0.4-0.3-0.6-0.6-0.8c-0.3-0.2-0.6-0.3-1-0.3
	c-0.4,0-0.7,0.1-1,0.3c-0.3,0.2-0.5,0.5-0.6,0.8C310,30.5,309.9,30.9,309.9,31.4z M325,27.9c0-0.4-0.2-0.8-0.6-1
	c-0.3-0.2-0.8-0.4-1.3-0.4c-0.4,0-0.7,0.1-1,0.2c-0.3,0.1-0.5,0.3-0.6,0.5s-0.2,0.4-0.2,0.7c0,0.2,0,0.4,0.1,0.5
	c0.1,0.2,0.2,0.3,0.4,0.4c0.2,0.1,0.3,0.2,0.5,0.3c0.2,0.1,0.4,0.1,0.6,0.2l0.9,0.2c0.4,0.1,0.7,0.2,1.1,0.4
	c0.3,0.1,0.7,0.3,0.9,0.6c0.3,0.2,0.5,0.5,0.7,0.8c0.2,0.3,0.2,0.7,0.2,1.1c0,0.6-0.1,1.1-0.4,1.5c-0.3,0.4-0.7,0.8-1.3,1
	c-0.6,0.2-1.2,0.4-2,0.4c-0.8,0-1.4-0.1-2-0.4c-0.6-0.2-1-0.6-1.3-1c-0.3-0.5-0.5-1-0.5-1.7h1.8c0,0.3,0.1,0.6,0.3,0.9
	c0.2,0.2,0.4,0.4,0.7,0.5c0.3,0.1,0.6,0.2,1,0.2c0.4,0,0.7-0.1,1-0.2c0.3-0.1,0.5-0.3,0.7-0.5c0.2-0.2,0.3-0.5,0.3-0.7
	c0-0.3-0.1-0.5-0.2-0.6c-0.1-0.2-0.4-0.3-0.6-0.4c-0.3-0.1-0.6-0.2-0.9-0.3l-1.1-0.3c-0.8-0.2-1.5-0.5-1.9-1c-0.5-0.4-0.7-1-0.7-1.7
	c0-0.6,0.2-1.1,0.5-1.5c0.3-0.4,0.8-0.8,1.3-1c0.5-0.2,1.2-0.4,1.9-0.4c0.7,0,1.3,0.1,1.9,0.4c0.5,0.2,1,0.6,1.3,1
	c0.3,0.4,0.5,0.9,0.5,1.5H325z M331.9,27.7V29h-4.3v-1.4H331.9z M328.7,25.9h1.8v7c0,0.2,0,0.4,0.1,0.5c0.1,0.1,0.2,0.2,0.3,0.3
	c0.1,0,0.3,0.1,0.4,0.1c0.1,0,0.2,0,0.3,0c0.1,0,0.2,0,0.2,0L332,35c-0.1,0-0.2,0.1-0.4,0.1c-0.2,0-0.4,0.1-0.6,0.1
	c-0.4,0-0.8-0.1-1.2-0.2c-0.4-0.1-0.6-0.4-0.8-0.7c-0.2-0.3-0.3-0.7-0.3-1.2V25.9z M336.2,35.2c-0.7,0-1.4-0.2-1.9-0.5
	c-0.5-0.3-0.9-0.8-1.2-1.3c-0.3-0.6-0.4-1.2-0.4-2c0-0.8,0.1-1.4,0.4-2c0.3-0.6,0.7-1,1.2-1.3c0.5-0.3,1.2-0.5,1.9-0.5
	c0.7,0,1.4,0.2,1.9,0.5c0.5,0.3,0.9,0.8,1.2,1.3c0.3,0.6,0.4,1.3,0.4,2c0,0.8-0.1,1.4-0.4,2c-0.3,0.6-0.7,1-1.2,1.3
	C337.6,35.1,337,35.2,336.2,35.2z M336.3,33.8c0.4,0,0.7-0.1,1-0.3c0.3-0.2,0.5-0.5,0.6-0.9c0.1-0.4,0.2-0.8,0.2-1.2
	c0-0.5-0.1-0.9-0.2-1.2c-0.1-0.4-0.3-0.7-0.6-0.9c-0.3-0.2-0.6-0.3-1-0.3c-0.4,0-0.7,0.1-1,0.3c-0.3,0.2-0.5,0.5-0.6,0.9
	c-0.1,0.4-0.2,0.8-0.2,1.2c0,0.5,0.1,0.9,0.2,1.2c0.1,0.4,0.3,0.7,0.6,0.9C335.5,33.7,335.8,33.8,336.3,33.8z M341,35.1v-7.4h1.7
	v1.2h0.1c0.1-0.4,0.4-0.8,0.7-1c0.3-0.2,0.7-0.4,1.1-0.4c0.1,0,0.2,0,0.3,0c0.1,0,0.2,0,0.3,0v1.6c-0.1,0-0.2,0-0.4-0.1
	c-0.2,0-0.3,0-0.5,0c-0.3,0-0.6,0.1-0.9,0.2c-0.3,0.1-0.5,0.3-0.6,0.6c-0.1,0.2-0.2,0.5-0.2,0.8v4.4H341z M349.1,35.2
	c-0.7,0-1.4-0.2-1.9-0.5c-0.5-0.3-1-0.8-1.2-1.3c-0.3-0.6-0.4-1.3-0.4-2c0-0.8,0.1-1.4,0.4-2c0.3-0.6,0.7-1,1.2-1.4
	c0.5-0.3,1.1-0.5,1.9-0.5c0.5,0,0.9,0.1,1.3,0.2c0.4,0.1,0.8,0.4,1.1,0.7c0.3,0.3,0.6,0.7,0.7,1.2c0.2,0.5,0.3,1,0.3,1.7v0.5h-6.1
	v-1.2h4.4c0-0.3-0.1-0.6-0.2-0.9c-0.1-0.3-0.3-0.5-0.6-0.6c-0.3-0.2-0.5-0.2-0.9-0.2c-0.4,0-0.7,0.1-0.9,0.3
	c-0.3,0.2-0.5,0.4-0.6,0.7c-0.1,0.3-0.2,0.6-0.2,0.9v1c0,0.4,0.1,0.8,0.2,1.1c0.2,0.3,0.4,0.5,0.7,0.7c0.3,0.2,0.6,0.2,1,0.2
	c0.3,0,0.5,0,0.7-0.1c0.2-0.1,0.4-0.2,0.5-0.3c0.2-0.1,0.3-0.3,0.3-0.5l1.6,0.2c-0.1,0.4-0.3,0.8-0.6,1.1c-0.3,0.3-0.7,0.6-1.1,0.7
	C350.2,35.2,349.7,35.2,349.1,35.2z"/>
<g>
	<defs>
		<rect id="SVGID_1_" x="294" y="43.8" width="9.1" height="9.1"/>
	</defs>
	<clipPath id="SVGID_00000174571690003383966660000006425949509034830759_">
		<use xlink:href="#SVGID_1_"  style="overflow:visible;"/>
	</clipPath>
	<g style="clip-path:url(#SVGID_00000174571690003383966660000006425949509034830759_);">
		<path className="st0" d="M298.5,50.7l-2.7,1.5l0.6-3l-2.2-2.1l3-0.4l1.3-2.8l1.3,2.8l3,0.4l-2.2,2.1l0.6,3L298.5,50.7z"/>
	</g>
</g>
<g>
	<defs>
		<rect id="SVGID_00000174602099193595022910000017427706738125436077_" x="305.3" y="43.8" width="9.1" height="9.1"/>
	</defs>
	<clipPath id="SVGID_00000181073741478620745650000009373110374062729638_">
		<use xlink:href="#SVGID_00000174602099193595022910000017427706738125436077_"  style="overflow:visible;"/>
	</clipPath>
	<g style="clip-path:url(#SVGID_00000181073741478620745650000009373110374062729638_);">
		<path className="st0" d="M309.9,50.7l-2.7,1.5l0.6-3l-2.2-2.1l3-0.4l1.3-2.8l1.3,2.8l3,0.4l-2.2,2.1l0.6,3L309.9,50.7z"/>
	</g>
</g>
<g>
	<defs>
		<rect id="SVGID_00000141451662889484093570000006055512691979531450_" x="316.7" y="43.8" width="9.1" height="9.1"/>
	</defs>
	<clipPath id="SVGID_00000019651950788059036110000001684753953605338556_">
		<use xlink:href="#SVGID_00000141451662889484093570000006055512691979531450_"  style="overflow:visible;"/>
	</clipPath>
	<g style="clip-path:url(#SVGID_00000019651950788059036110000001684753953605338556_);">
		<path className="st0" d="M321.2,50.7l-2.7,1.5l0.6-3l-2.2-2.1l3-0.4l1.3-2.8l1.3,2.8l3,0.4l-2.2,2.1l0.6,3L321.2,50.7z"/>
	</g>
</g>
<g>
	<defs>
		<rect id="SVGID_00000010290484523424111380000014819552934070548141_" x="328.1" y="43.8" width="9.1" height="9.1"/>
	</defs>
	<clipPath id="SVGID_00000165213888368918668100000012022440403639075238_">
		<use xlink:href="#SVGID_00000010290484523424111380000014819552934070548141_"  style="overflow:visible;"/>
	</clipPath>
	<g style="clip-path:url(#SVGID_00000165213888368918668100000012022440403639075238_);">
		<path className="st0" d="M332.6,50.7l-2.7,1.5l0.6-3l-2.2-2.1l3-0.4l1.3-2.8l1.3,2.8l3,0.4l-2.2,2.1l0.6,3L332.6,50.7z"/>
	</g>
</g>
<g>
	<defs>
		<rect id="SVGID_00000178885451360966567020000004130119813607784888_" x="339.4" y="43.8" width="9.1" height="9.1"/>
	</defs>
	<clipPath id="SVGID_00000094607997495595244560000016962989342053099445_">
		<use xlink:href="#SVGID_00000178885451360966567020000004130119813607784888_"  style="overflow:visible;"/>
	</clipPath>
	<g style="clip-path:url(#SVGID_00000094607997495595244560000016962989342053099445_);">
		<path className="st0" d="M344,50.7l-2.7,1.5l0.6-3l-2.2-2.1l3-0.4L344,44l1.3,2.8l3,0.4l-2.2,2.1l0.6,3L344,50.7z"/>
	</g>
</g>
<path className="st0" d="M372.1,12.8c0.9,1.3,1.7,2.8,1.3,4.5c-1.4-0.8-2.5-2.1-3.4-3.4c-0.9-1.3-1.8-2.7-2.1-4.3
	C369.6,10.2,371.2,11.4,372.1,12.8z"/>
<path className="st0" d="M374.6,20.6c-0.5-1.3-1.6-2.5-2.8-3c-1.1-0.5-2.6-1-3.8-0.4c0.7,1.2,1.8,2.2,3,2.9c1.1,0.6,2.4,1.3,3.7,1
	c1.4-0.2,2.1-1.7,2.5-2.7c0.5-1.5,0.2-3.5-0.7-5c-1.3,0.5-1.6,2.1-1.9,3.2C374.3,17.8,374.3,19.3,374.6,20.6z"/>
<path className="st0" d="M373.6,22.5c1,0.7,1.8,2,2,3.4c0-1.4,0.4-2.8,1-3.9c0.5-1,1.3-2.4,2.6-2.7c0.5,1.6,0.4,3.6-0.5,4.9
	c-0.6,1-1.7,2.2-3.1,2.2c-1.3,0.1-2.5-0.8-3.4-1.6c-1-0.8-1.9-2-2.2-3.3C371.3,21.1,372.6,21.8,373.6,22.5z"/>
<path className="st0" d="M375.2,31.3c0.1-1.3-0.3-2.8-1.1-3.7c-0.8-0.9-1.9-1.8-3.3-1.6c0,1.3,0.7,2.6,1.4,3.6c0.6,0.9,1.6,2,3,2.2
	c1.4,0.2,2.7-0.6,3.5-1.6c1.1-1.3,1.8-2.9,1.6-4.6c-1.4,0-2.5,1.2-3.2,2.1C376.2,28.6,375.5,29.9,375.2,31.3z"/>
<path className="st0" d="M373.2,32.5c0.7,1.3,0.8,2.9,0.3,4.2c0.8-1.4,1.9-2.6,3-3.6c1.1-1,2.6-2,4.1-1.8c-0.3,1.9-1.5,3.9-3,4.9
	c-1.2,0.8-2.8,1.6-4.4,1c-1.3-0.5-2.1-1.8-2.7-3c-0.5-1.3-0.9-2.8-0.6-4.2C371.4,30.2,372.6,31.2,373.2,32.5z"/>
<path className="st0" d="M370.4,41.8c0.8-1.3,1.1-2.8,0.8-4.3c-0.3-1.4-1.3-2.7-2.7-3.1c-0.6,1.4-0.6,2.9-0.4,4.4
	c0.2,1.3,0.7,2.9,1.9,3.6c1.5,1,3.3,0.4,4.7-0.2c1.9-0.7,3.6-2.5,4.3-4.4c-1.6-0.5-3.3,0.3-4.7,1C373,39.5,371.5,40.5,370.4,41.8z"
	/>
<path className="st0" d="M364.2,42.8c-0.2,1.4-0.2,3.1,0.9,4.2c1.3,1.4,3.4,1.1,5,0.8c2.1-0.4,4.6-1.9,5.9-3.8c-1.6-0.9-3.5-0.3-5.1,0.1
	l-0.1,0c-1.7,0.5-3.6,1.3-5.2,2.4c1.2-1.1,2.1-2.8,2.2-4.4c0-1.5-0.6-3.1-2-3.8C364.8,39.6,364.4,41.3,364.2,42.8z"/>
<path className="st0" d="M363,52.9c-1.7,0-4.1-0.2-5-2l0,0c-0.8-1.5,0-3.2,0.6-4.5c0.7-1.5,1.7-3.1,3.2-4.2c1.4,1.2,1.2,2.9,0.8,4.4
	c-0.5,1.8-2.2,3.3-3.9,4.1c2-0.8,4.3-1.2,6.4-1.3l0.2,0c1.7-0.1,3.9-0.3,5.3,1C368.5,52,365.5,53,363,52.9z"/>
<g>
	<defs>
		<rect id="SVGID_00000155842305335492808660000007665479725204661379_" x="129.6" y="67.9" width="118.1" height="39.4"/>
	</defs>
	<clipPath id="SVGID_00000013184185376620086510000006820106030463122599_">
		<use xlink:href="#SVGID_00000155842305335492808660000007665479725204661379_"  style="overflow:visible;"/>
	</clipPath>
	<g style="clip-path:url(#SVGID_00000013184185376620086510000006820106030463122599_);">
		<path d="M238.3,67.9H139c-0.4,0-0.7,0-1.1,0c-0.3,0-0.6,0-0.9,0c-0.7,0-1.3,0.1-2,0.2c-0.7,0.1-1.3,0.3-1.9,0.6
			c-0.6,0.3-1.1,0.7-1.6,1.2c-0.5,0.5-0.9,1-1.2,1.6c-0.3,0.6-0.5,1.2-0.6,1.9c-0.1,0.7-0.2,1.3-0.2,2c0,0.3,0,0.6,0,0.9V99
			c0,0.3,0,0.6,0,0.9c0,0.7,0.1,1.3,0.2,2c0.1,0.7,0.3,1.3,0.6,1.9c0.3,0.6,0.7,1.1,1.2,1.6c0.5,0.5,1,0.9,1.6,1.2
			c0.6,0.3,1.2,0.5,1.9,0.6c0.7,0.1,1.3,0.2,2,0.2c0.3,0,0.6,0,0.9,0c0.4,0,0.7,0,1.1,0h99.2c0.4,0,0.7,0,1.1,0c0.3,0,0.6,0,0.9,0
			c0.7,0,1.3-0.1,2-0.2c0.7-0.1,1.3-0.3,1.9-0.6c0.6-0.3,1.1-0.7,1.6-1.2c0.5-0.5,0.9-1,1.2-1.6c0.3-0.6,0.5-1.2,0.6-1.9
			c0.1-0.7,0.2-1.3,0.2-2c0-0.3,0-0.6,0-0.9c0-0.4,0-0.7,0-1.1V77.3c0-0.4,0-0.7,0-1.1c0-0.3,0-0.6,0-0.9c0-0.7-0.1-1.3-0.2-2
			c-0.1-0.7-0.3-1.3-0.6-1.9c-0.6-1.2-1.6-2.1-2.8-2.8c-0.6-0.3-1.2-0.5-1.9-0.6c-0.7-0.1-1.3-0.2-2-0.2c-0.3,0-0.6,0-0.9,0
			C239,67.9,238.6,67.9,238.3,67.9L238.3,67.9z"/>
		<path d="M138,106.4c-0.3,0-0.6,0-0.9,0c-0.6,0-1.2-0.1-1.8-0.2c-0.6-0.1-1.1-0.3-1.6-0.5c-0.5-0.3-1-0.6-1.4-1
			c-0.4-0.4-0.7-0.9-1-1.4c-0.3-0.5-0.4-1.1-0.5-1.6c-0.1-0.6-0.2-1.2-0.2-1.8c0-0.2,0-0.9,0-0.9V76.2c0,0,0-0.7,0-0.9
			c0-0.6,0.1-1.2,0.2-1.8c0.1-0.6,0.3-1.1,0.5-1.6c0.3-0.5,0.6-1,1-1.4c0.4-0.4,0.9-0.7,1.4-1c0.5-0.3,1.1-0.4,1.6-0.5
			c0.6-0.1,1.2-0.2,1.8-0.2l0.9,0h101.4l0.9,0c0.6,0,1.2,0.1,1.8,0.2c0.6,0.1,1.1,0.3,1.6,0.5c1,0.5,1.9,1.4,2.4,2.4
			c0.3,0.5,0.4,1.1,0.5,1.6c0.1,0.6,0.2,1.2,0.2,1.9c0,0.3,0,0.6,0,0.9c0,0.4,0,0.7,0,1.1v20.6c0,0.4,0,0.7,0,1.1c0,0.3,0,0.6,0,0.9
			c0,0.6-0.1,1.2-0.2,1.8c-0.1,0.6-0.3,1.1-0.5,1.6c-0.3,0.5-0.6,1-1,1.4c-0.4,0.4-0.9,0.7-1.4,1c-0.5,0.3-1.1,0.4-1.6,0.5
			c-0.6,0.1-1.2,0.2-1.8,0.2c-0.3,0-0.6,0-0.9,0l-1.1,0L138,106.4z"/>
		<path className="st7" d="M154.1,87.9c0-0.8,0.2-1.6,0.6-2.3c0.4-0.7,1-1.3,1.7-1.7c-0.4-0.6-1-1.2-1.7-1.5c-0.7-0.4-1.4-0.6-2.2-0.6
			c-1.7-0.2-3.3,1-4.1,1c-0.9,0-2.2-1-3.6-0.9c-0.9,0-1.8,0.3-2.6,0.8c-0.8,0.5-1.4,1.1-1.9,1.9c-1.9,3.3-0.5,8.1,1.3,10.8
			c0.9,1.3,2,2.8,3.4,2.7c1.4-0.1,1.9-0.9,3.5-0.9c1.6,0,2.1,0.9,3.5,0.8c1.5,0,2.4-1.3,3.3-2.6c0.7-0.9,1.2-2,1.5-3
			c-0.9-0.4-1.6-1-2.1-1.7C154.3,89.7,154.1,88.8,154.1,87.9z"/>
		<path className="st7" d="M151.4,79.9c0.8-1,1.2-2.2,1.1-3.4c-1.2,0.1-2.4,0.7-3.2,1.6c-0.4,0.4-0.7,1-0.9,1.5
			c-0.2,0.6-0.3,1.2-0.2,1.8c0.6,0,1.2-0.1,1.8-0.4C150.5,80.8,151,80.4,151.4,79.9z"/>
		<path className="st7" d="M171.4,94.6h-4.7l-1.1,3.3h-2l4.4-12.2h2.1l4.4,12.2h-2L171.4,94.6z M167.2,93.1h3.7l-1.8-5.4H169L167.2,93.1
			z"/>
		<path className="st7" d="M184,93.5c0,2.8-1.5,4.5-3.7,4.5c-0.6,0-1.1-0.1-1.6-0.4c-0.5-0.3-0.9-0.7-1.2-1.2h0v4.4h-1.8V89h1.8v1.5h0
			c0.3-0.5,0.7-0.9,1.2-1.2c0.5-0.3,1.1-0.4,1.6-0.4C182.6,88.9,184,90.7,184,93.5z M182.2,93.5c0-1.8-0.9-3-2.4-3
			c-1.4,0-2.3,1.2-2.3,3c0,1.8,0.9,3,2.3,3C181.2,96.5,182.2,95.3,182.2,93.5z"/>
		<path className="st7" d="M193.9,93.5c0,2.8-1.5,4.5-3.7,4.5c-0.6,0-1.1-0.1-1.6-0.4s-0.9-0.7-1.2-1.2h0v4.4h-1.8V89h1.8v1.5h0
			c0.3-0.5,0.7-0.9,1.2-1.2c0.5-0.3,1.1-0.4,1.6-0.4C192.4,88.9,193.9,90.7,193.9,93.5z M192,93.5c0-1.8-0.9-3-2.4-3
			c-1.4,0-2.3,1.2-2.3,3c0,1.8,0.9,3,2.3,3C191.1,96.5,192,95.3,192,93.5L192,93.5z"/>
		<path className="st7" d="M200.4,94.5c0.1,1.2,1.3,2,2.9,2c1.5,0,2.7-0.8,2.7-1.9c0-0.9-0.7-1.5-2.3-1.9l-1.6-0.4
			c-2.2-0.5-3.3-1.6-3.3-3.3c0-2.1,1.8-3.6,4.5-3.6c2.6,0,4.4,1.4,4.4,3.6h-1.9c-0.1-1.2-1.1-2-2.6-2c-1.5,0-2.5,0.7-2.5,1.8
			c0,0.9,0.6,1.4,2.2,1.8l1.4,0.3c2.5,0.6,3.6,1.6,3.6,3.4c0,2.3-1.8,3.7-4.7,3.7c-2.7,0-4.6-1.4-4.7-3.6H200.4z"/>
		<path className="st7" d="M211.9,86.9V89h1.7v1.4h-1.7v4.9c0,0.8,0.3,1.1,1.1,1.1c0.2,0,0.4,0,0.6,0v1.4c-0.3,0.1-0.7,0.1-1,0.1
			c-1.8,0-2.5-0.7-2.5-2.4v-5.1h-1.3V89h1.3v-2.1H211.9z"/>
		<path className="st7" d="M214.5,93.5c0-2.8,1.7-4.6,4.2-4.6c2.6,0,4.2,1.8,4.2,4.6c0,2.8-1.6,4.6-4.2,4.6
			C216.2,98,214.5,96.3,214.5,93.5z M221.1,93.5c0-1.9-0.9-3.1-2.4-3.1c-1.5,0-2.4,1.1-2.4,3.1c0,1.9,0.9,3.1,2.4,3.1
			C220.3,96.5,221.1,95.4,221.1,93.5L221.1,93.5z"/>
		<path className="st7" d="M224.5,89h1.7v1.5h0c0.1-0.5,0.4-0.9,0.8-1.2s0.9-0.4,1.4-0.4c0.2,0,0.4,0,0.6,0.1v1.7
			c-0.3-0.1-0.5-0.1-0.8-0.1c-0.3,0-0.5,0-0.8,0.1c-0.2,0.1-0.5,0.3-0.6,0.4c-0.2,0.2-0.3,0.4-0.4,0.7c-0.1,0.3-0.1,0.5-0.1,0.8v5.3
			h-1.8V89z"/>
		<path className="st7" d="M237.5,95.3c-0.2,1.6-1.8,2.7-3.8,2.7c-2.6,0-4.2-1.7-4.2-4.5c0-2.8,1.6-4.6,4.1-4.6c2.5,0,4,1.7,4,4.4v0.6
			h-6.3V94c0,0.3,0,0.7,0.1,1c0.1,0.3,0.3,0.6,0.5,0.8c0.2,0.2,0.5,0.4,0.8,0.6c0.3,0.1,0.6,0.2,1,0.2c0.4,0,0.9-0.1,1.2-0.3
			c0.4-0.2,0.7-0.6,0.8-1H237.5z M231.3,92.7h4.5c0-0.3,0-0.6-0.1-0.9c-0.1-0.3-0.3-0.5-0.5-0.7c-0.2-0.2-0.5-0.4-0.7-0.5
			c-0.3-0.1-0.6-0.2-0.9-0.2c-0.3,0-0.6,0.1-0.9,0.2c-0.3,0.1-0.5,0.3-0.7,0.5c-0.2,0.2-0.4,0.5-0.5,0.7
			C231.4,92.1,231.3,92.4,231.3,92.7L231.3,92.7z"/>
		<path className="st7" d="M167,76.5c0.4,0,0.8,0,1.1,0.2c0.4,0.1,0.7,0.4,0.9,0.6s0.5,0.6,0.6,1c0.1,0.4,0.2,0.8,0.1,1.1
			c0,1.9-1,3-2.8,3h-2.1v-5.9H167z M165.7,81.6h1.1c0.3,0,0.5,0,0.8-0.1c0.3-0.1,0.5-0.3,0.7-0.5c0.2-0.2,0.3-0.4,0.4-0.7
			c0.1-0.3,0.1-0.5,0.1-0.8c0-0.3,0-0.5-0.1-0.8c-0.1-0.3-0.2-0.5-0.4-0.7c-0.2-0.2-0.4-0.4-0.7-0.5c-0.3-0.1-0.5-0.1-0.8-0.1h-1.1
			V81.6z"/>
		<path className="st7" d="M170.8,80.2c0-0.3,0-0.6,0.1-0.9c0.1-0.3,0.2-0.5,0.4-0.7c0.2-0.2,0.4-0.4,0.7-0.5c0.3-0.1,0.6-0.2,0.9-0.2
			c0.3,0,0.6,0.1,0.9,0.2c0.3,0.1,0.5,0.3,0.7,0.5c0.2,0.2,0.3,0.5,0.4,0.7c0.1,0.3,0.1,0.6,0.1,0.9c0,0.3,0,0.6-0.1,0.9
			c-0.1,0.3-0.2,0.5-0.4,0.8c-0.2,0.2-0.4,0.4-0.7,0.5c-0.3,0.1-0.6,0.2-0.9,0.2c-0.3,0-0.6-0.1-0.9-0.2c-0.3-0.1-0.5-0.3-0.7-0.5
			c-0.2-0.2-0.3-0.5-0.4-0.8C170.8,80.8,170.7,80.5,170.8,80.2z M174,80.2c0-1-0.4-1.5-1.2-1.5c-0.8,0-1.2,0.6-1.2,1.5
			c0,1,0.4,1.5,1.2,1.5C173.6,81.7,174,81.1,174,80.2L174,80.2z"/>
		<path className="st7" d="M180.5,82.4h-0.9l-0.9-3.3h-0.1l-0.9,3.3h-0.9l-1.2-4.4h0.9l0.8,3.4h0.1l0.9-3.4h0.8l0.9,3.4h0.1l0.8-3.4h0.9
			L180.5,82.4z"/>
		<path className="st7" d="M182.8,78h0.8v0.7h0.1c0.1-0.3,0.3-0.5,0.5-0.6c0.2-0.1,0.5-0.2,0.8-0.2c0.2,0,0.4,0,0.6,0.1
			c0.2,0.1,0.4,0.2,0.5,0.4c0.1,0.2,0.3,0.3,0.3,0.6c0.1,0.2,0.1,0.4,0,0.6v2.9h-0.9v-2.6c0-0.7-0.3-1.1-1-1.1c-0.1,0-0.3,0-0.4,0.1
			c-0.1,0.1-0.3,0.1-0.4,0.2c-0.1,0.1-0.2,0.2-0.2,0.4c0,0.1-0.1,0.3,0,0.4v2.6h-0.9V78z"/>
		<path className="st7" d="M187.9,76.2h0.9v6.2h-0.9V76.2z"/>
		<path className="st7" d="M190,80.2c0-0.3,0-0.6,0.1-0.9c0.1-0.3,0.2-0.5,0.4-0.7c0.2-0.2,0.4-0.4,0.7-0.5c0.3-0.1,0.6-0.2,0.9-0.2
			c0.3,0,0.6,0.1,0.9,0.2c0.3,0.1,0.5,0.3,0.7,0.5c0.2,0.2,0.3,0.5,0.4,0.7c0.1,0.3,0.1,0.6,0.1,0.9c0,0.3,0,0.6-0.1,0.9
			c-0.1,0.3-0.2,0.5-0.4,0.8c-0.2,0.2-0.4,0.4-0.7,0.5c-0.3,0.1-0.6,0.2-0.9,0.2c-0.3,0-0.6-0.1-0.9-0.2c-0.3-0.1-0.5-0.3-0.7-0.5
			c-0.2-0.2-0.3-0.5-0.4-0.8C190,80.8,190,80.5,190,80.2z M193.3,80.2c0-1-0.4-1.5-1.2-1.5c-0.8,0-1.2,0.6-1.2,1.5
			c0,1,0.4,1.5,1.2,1.5C192.9,81.7,193.3,81.1,193.3,80.2L193.3,80.2z"/>
		<path className="st7" d="M195.1,81.1c0-0.8,0.6-1.3,1.7-1.3l1.2-0.1v-0.4c0-0.5-0.3-0.7-0.9-0.7c-0.5,0-0.8,0.2-0.9,0.5h-0.8
			c0.1-0.8,0.8-1.2,1.8-1.2c1.1,0,1.7,0.6,1.7,1.5v3H198v-0.6H198c-0.1,0.2-0.3,0.4-0.6,0.5c-0.2,0.1-0.5,0.2-0.8,0.2
			c-0.2,0-0.4,0-0.6-0.1c-0.2-0.1-0.3-0.2-0.5-0.3c-0.1-0.1-0.3-0.3-0.3-0.4C195.2,81.5,195.1,81.3,195.1,81.1z M198,80.8v-0.4
			l-1.1,0.1c-0.6,0-0.9,0.2-0.9,0.6c0,0.4,0.3,0.6,0.8,0.6c0.1,0,0.3,0,0.4,0c0.1,0,0.3-0.1,0.4-0.2c0.1-0.1,0.2-0.2,0.3-0.3
			C197.9,81,198,80.9,198,80.8z"/>
		<path className="st7" d="M200,80.2c0-1.4,0.7-2.3,1.8-2.3c0.3,0,0.6,0.1,0.8,0.2c0.2,0.1,0.4,0.3,0.6,0.6h0.1v-2.4h0.9v6.2h-0.8v-0.7
			h-0.1c-0.1,0.2-0.3,0.4-0.6,0.6s-0.5,0.2-0.8,0.2C200.7,82.5,200,81.6,200,80.2z M200.9,80.2c0,0.9,0.4,1.5,1.2,1.5
			c0.7,0,1.2-0.6,1.2-1.5c0-0.9-0.5-1.5-1.2-1.5C201.4,78.7,200.9,79.2,200.9,80.2L200.9,80.2z"/>
		<path className="st7" d="M207.8,80.2c0-0.3,0-0.6,0.1-0.9c0.1-0.3,0.2-0.5,0.4-0.7c0.2-0.2,0.4-0.4,0.7-0.5c0.3-0.1,0.6-0.2,0.9-0.2
			c0.3,0,0.6,0.1,0.9,0.2c0.3,0.1,0.5,0.3,0.7,0.5c0.2,0.2,0.3,0.5,0.4,0.7c0.1,0.3,0.1,0.6,0.1,0.9c0,0.3,0,0.6-0.1,0.9
			c-0.1,0.3-0.2,0.5-0.4,0.8c-0.2,0.2-0.4,0.4-0.7,0.5c-0.3,0.1-0.6,0.2-0.9,0.2c-0.3,0-0.6-0.1-0.9-0.2c-0.3-0.1-0.5-0.3-0.7-0.5
			c-0.2-0.2-0.3-0.5-0.4-0.8C207.8,80.8,207.8,80.5,207.8,80.2z M211.1,80.2c0-1-0.4-1.5-1.2-1.5c-0.8,0-1.2,0.6-1.2,1.5
			c0,1,0.4,1.5,1.2,1.5C210.7,81.7,211.1,81.1,211.1,80.2z"/>
		<path className="st7" d="M213.2,78h0.8v0.7h0.1c0.1-0.3,0.3-0.5,0.5-0.6c0.2-0.1,0.5-0.2,0.8-0.2c0.2,0,0.4,0,0.6,0.1
			c0.2,0.1,0.4,0.2,0.5,0.4c0.1,0.2,0.3,0.3,0.3,0.6c0.1,0.2,0.1,0.4,0,0.6v2.9h-0.9v-2.6c0-0.7-0.3-1.1-1-1.1c-0.1,0-0.3,0-0.4,0.1
			c-0.1,0.1-0.3,0.1-0.4,0.2c-0.1,0.1-0.2,0.2-0.2,0.4s-0.1,0.3,0,0.4v2.6h-0.9V78z"/>
		<path className="st7" d="M221.9,76.9V78h1v0.7h-1V81c0,0.5,0.2,0.7,0.6,0.7c0.1,0,0.2,0,0.3,0v0.7c-0.2,0-0.3,0-0.5,0
			c-1,0-1.4-0.3-1.4-1.2v-2.5h-0.7V78h0.7v-1.1H221.9z"/>
		<path className="st7" d="M224.1,76.2h0.9v2.4h0.1c0.1-0.3,0.3-0.5,0.6-0.6c0.2-0.1,0.5-0.2,0.8-0.2c0.2,0,0.4,0,0.6,0.1
			c0.2,0.1,0.4,0.2,0.5,0.4c0.1,0.2,0.3,0.3,0.3,0.6c0.1,0.2,0.1,0.4,0.1,0.6v2.9H227v-2.6c0-0.7-0.3-1.1-1-1.1
			c-0.2,0-0.3,0-0.4,0.1c-0.1,0.1-0.3,0.1-0.4,0.2c-0.1,0.1-0.2,0.2-0.2,0.4c-0.1,0.1-0.1,0.3-0.1,0.4v2.6h-0.9V76.2z"/>
		<path className="st7" d="M233,81.2c-0.1,0.4-0.4,0.8-0.7,1c-0.4,0.2-0.8,0.3-1.2,0.3c-0.3,0-0.6,0-0.9-0.2c-0.3-0.1-0.5-0.3-0.7-0.5
			c-0.2-0.2-0.3-0.5-0.4-0.8c-0.1-0.3-0.1-0.6-0.1-0.9c0-0.3,0-0.6,0.1-0.9s0.2-0.5,0.4-0.8c0.2-0.2,0.4-0.4,0.7-0.5
			c0.3-0.1,0.6-0.2,0.9-0.2c1.2,0,2,0.8,2,2.2v0.3h-3.1v0c0,0.2,0,0.3,0.1,0.5s0.1,0.3,0.2,0.4c0.1,0.1,0.2,0.2,0.4,0.3
			c0.1,0.1,0.3,0.1,0.5,0.1c0.2,0,0.4,0,0.6-0.1c0.2-0.1,0.3-0.2,0.4-0.4H233z M229.9,79.8h2.2c0-0.1,0-0.3-0.1-0.4
			c0-0.1-0.1-0.3-0.2-0.4s-0.2-0.2-0.4-0.3s-0.3-0.1-0.4-0.1c-0.2,0-0.3,0-0.4,0.1c-0.1,0.1-0.3,0.1-0.4,0.2
			c-0.1,0.1-0.2,0.2-0.2,0.4C229.9,79.5,229.9,79.6,229.9,79.8L229.9,79.8z"/>
	</g>
</g>
<path d="M262.4,67.9h102.3c4.3,0,7.9,3.5,7.9,7.9v23.6c0,4.3-3.5,7.9-7.9,7.9H262.4c-4.3,0-7.9-3.5-7.9-7.9V75.8
	C254.6,71.4,258.1,67.9,262.4,67.9z"/>
<path className="st7" d="M293,77.6c0-0.1-0.1-0.3-0.2-0.4c-0.1-0.1-0.2-0.2-0.3-0.3c-0.1-0.1-0.2-0.1-0.4-0.2c-0.1,0-0.3-0.1-0.5-0.1
	c-0.3,0-0.6,0.1-0.8,0.2c-0.2,0.2-0.4,0.4-0.6,0.7c-0.1,0.3-0.2,0.6-0.2,1.1c0,0.4,0.1,0.8,0.2,1.1c0.1,0.3,0.3,0.5,0.6,0.7
	c0.2,0.2,0.5,0.2,0.8,0.2c0.3,0,0.5-0.1,0.7-0.2c0.2-0.1,0.4-0.3,0.5-0.5c0.1-0.2,0.2-0.4,0.2-0.7l0.2,0h-1.5v-0.8h2.3v0.7
	c0,0.5-0.1,0.9-0.3,1.2c-0.2,0.3-0.5,0.6-0.8,0.8c-0.4,0.2-0.8,0.3-1.2,0.3c-0.5,0-1-0.1-1.3-0.3c-0.4-0.2-0.7-0.6-0.9-1
	c-0.2-0.4-0.3-0.9-0.3-1.5c0-0.4,0.1-0.8,0.2-1.2c0.1-0.4,0.3-0.7,0.5-0.9c0.2-0.2,0.5-0.4,0.8-0.6c0.3-0.1,0.6-0.2,1-0.2
	c0.3,0,0.6,0,0.9,0.1c0.3,0.1,0.5,0.2,0.7,0.4c0.2,0.2,0.4,0.4,0.5,0.6c0.1,0.2,0.2,0.5,0.3,0.7H293z"/>
<path className="st7" d="M295,81.4v-5.5h3.6v0.8H296v1.5h2.4v0.8H296v1.5h2.6v0.8H295z"/>
<path className="st7" d="M299.4,76.7v-0.8h4.4v0.8h-1.7v4.7h-1v-4.7H299.4z"/>
<path className="st7" d="M307.6,75.9v5.5h-1v-5.5H307.6z"/>
<path className="st7" d="M308.5,76.7v-0.8h4.4v0.8h-1.7v4.7h-1v-4.7H308.5z"/>
<path className="st7" d="M320.6,78.6c0,0.6-0.1,1.1-0.3,1.5c-0.2,0.4-0.5,0.7-0.9,1c-0.4,0.2-0.8,0.3-1.3,0.3s-0.9-0.1-1.3-0.3
	c-0.4-0.2-0.7-0.6-0.9-1c-0.2-0.4-0.3-0.9-0.3-1.5c0-0.6,0.1-1.1,0.3-1.5c0.2-0.4,0.5-0.8,0.9-1c0.4-0.2,0.8-0.3,1.3-0.3
	s0.9,0.1,1.3,0.3c0.4,0.2,0.7,0.6,0.9,1C320.5,77.5,320.6,78,320.6,78.6z M319.6,78.6c0-0.4-0.1-0.8-0.2-1.1
	c-0.1-0.3-0.3-0.5-0.5-0.7c-0.2-0.1-0.5-0.2-0.8-0.2c-0.3,0-0.6,0.1-0.8,0.2c-0.2,0.1-0.4,0.4-0.5,0.7c-0.1,0.3-0.2,0.6-0.2,1.1
	c0,0.4,0.1,0.8,0.2,1.1c0.1,0.3,0.3,0.5,0.5,0.7c0.2,0.1,0.5,0.2,0.8,0.2c0.3,0,0.6-0.1,0.8-0.2c0.2-0.1,0.4-0.4,0.5-0.7
	C319.5,79.4,319.6,79.1,319.6,78.6z"/>
<path className="st7" d="M326.1,75.9v5.5h-0.9l-2.6-3.8h0v3.8h-1v-5.5h0.9l2.6,3.8h0v-3.8H326.1z"/>
<path className="st7" d="M349.2,97.2h1.7V85.8h-1.7V97.2z M364.5,89.9l-2,4.9h-0.1l-2-4.9h-1.8l3,6.9l-1.7,3.8h1.8l4.7-10.7H364.5z
	 M354.9,95.9c-0.6,0-1.3-0.3-1.3-1c0-0.9,1-1.2,1.8-1.2c0.7,0,1.1,0.2,1.6,0.4C356.8,95.2,355.9,95.9,354.9,95.9z M355.1,89.7
	c-1.2,0-2.5,0.5-3,1.7l1.5,0.6c0.3-0.6,0.9-0.8,1.6-0.8c0.9,0,1.8,0.5,1.8,1.5v0.1c-0.3-0.2-1-0.4-1.8-0.4c-1.6,0-3.3,0.9-3.3,2.6
	c0,1.5,1.3,2.5,2.8,2.5c1.1,0,1.8-0.5,2.2-1.1h0.1v0.9h1.6v-4.4C358.6,90.8,357,89.7,355.1,89.7z M344.6,91.3h-2.4v-3.9h2.4
	c1.3,0,2,1.1,2,1.9C346.6,90.2,345.8,91.3,344.6,91.3z M344.5,85.8h-4.1v11.4h1.7v-4.3h2.4c1.9,0,3.7-1.4,3.7-3.5
	S346.4,85.8,344.5,85.8z M322.3,95.9c-1.2,0-2.2-1-2.2-2.3c0-1.4,1-2.4,2.2-2.4c1.2,0,2.1,1,2.1,2.4
	C324.3,94.9,323.4,95.9,322.3,95.9z M324.2,90.6L324.2,90.6c-0.4-0.5-1.2-0.9-2.1-0.9c-1.9,0-3.7,1.7-3.7,3.9c0,2.2,1.8,3.9,3.7,3.9
	c0.9,0,1.7-0.4,2-0.9h0.1v0.6c0,1.5-0.8,2.3-2.1,2.3c-1,0-1.7-0.7-2-1.4l-1.5,0.6c0.4,1,1.6,2.3,3.4,2.3c2,0,3.7-1.2,3.7-4v-6.9
	h-1.6V90.6z M327,97.2h1.7V85.8H327V97.2z M331.2,93.4c0-1.5,1.2-2.3,2-2.3c0.7,0,1.2,0.3,1.4,0.8L331.2,93.4z M336.5,92.1
	c-0.3-0.9-1.3-2.5-3.3-2.5c-2,0-3.7,1.6-3.7,3.9c0,2.2,1.6,3.9,3.9,3.9c1.8,0,2.8-1.1,3.2-1.7l-1.3-0.9c-0.4,0.6-1,1.1-1.9,1.1
	c-0.9,0-1.5-0.4-1.9-1.2l5.2-2.1L336.5,92.1z M295.2,90.9v1.6h3.9c-0.1,0.9-0.4,1.6-0.9,2.1c-0.6,0.6-1.5,1.2-3,1.2
	c-2.4,0-4.3-1.9-4.3-4.4s1.9-4.4,4.3-4.4c1.3,0,2.3,0.5,3,1.2l1.2-1.2c-1-0.9-2.3-1.7-4.1-1.7c-3.3,0-6.1,2.7-6.1,6s2.8,6,6.1,6
	c1.8,0,3.1-0.6,4.2-1.7c1.1-1.1,1.4-2.6,1.4-3.8c0-0.4,0-0.7-0.1-1H295.2z M305.3,95.9c-1.2,0-2.2-1-2.2-2.3c0-1.4,1-2.3,2.2-2.3
	c1.2,0,2.2,1,2.2,2.3C307.5,94.9,306.5,95.9,305.3,95.9z M305.3,89.7c-2.1,0-3.9,1.6-3.9,3.9c0,2.2,1.8,3.9,3.9,3.9
	c2.1,0,3.9-1.6,3.9-3.9C309.2,91.3,307.4,89.7,305.3,89.7z M313.8,95.9c-1.2,0-2.2-1-2.2-2.3c0-1.4,1-2.3,2.2-2.3
	c1.2,0,2.2,1,2.2,2.3C316,94.9,315,95.9,313.8,95.9z M313.8,89.7c-2.1,0-3.9,1.6-3.9,3.9c0,2.2,1.7,3.9,3.9,3.9
	c2.1,0,3.9-1.6,3.9-3.9C317.7,91.3,315.9,89.7,313.8,89.7z"/>
<path className="st8" d="M270.5,87.6l-9.7,10.3c0,0,0,0,0,0c0.3,1.1,1.3,1.9,2.5,1.9c0.5,0,0.9-0.1,1.3-0.4l0,0l10.9-6.3L270.5,87.6z"/>
<path className="st9" d="M280.3,85.8L280.3,85.8l-4.7-2.7l-5.3,4.7l5.3,5.3l4.7-2.7c0.8-0.4,1.4-1.3,1.4-2.3
	C281.7,87.1,281.2,86.3,280.3,85.8z"/>
<path className="st10" d="M260.8,78.3c-0.1,0.2-0.1,0.4-0.1,0.7v18.2c0,0.2,0,0.5,0.1,0.7l10-10L260.8,78.3z"/>
<path className="st11" d="M270.6,88.1l5-5l-10.9-6.3c-0.4-0.2-0.9-0.4-1.4-0.4c-1.2,0-2.2,0.8-2.5,1.9c0,0,0,0,0,0L270.6,88.1z"/>
<g>
	<path d="M87.9,60.5C87.9,60.5,87.9,60.5,87.9,60.5C87.9,60.5,87.9,60.4,87.9,60.5L87.9,60.5z"/>
	<path d="M95.8,95.7c0,1.3,0,2.5,0,3.8c2.6,0,5.1,0,7.6,0c0-19.5,0-39,0-58.4c-1.3,0-2.5,0-3.8,0c0,1.3,0,2.5,0,3.9
		c-1.3,0-2.6,0-3.8,0c0,1.3,0,2.5,0,3.8c1.3,0,2.5,0,3.8,0c0,1.3,0,2.6,0,3.9c-1.3,0-2.6,0-4,0c0-1.3,0-2.6,0-3.8
		c-1.3,0-2.5,0-3.8,0c0,3.9,0,7.7,0,11.6c-1.4,0-2.6,0-3.9,0c0,2.6,0,5.1,0,7.7c1.3,0,2.5,0,3.9,0c0-1.3,0-2.5,0-3.9
		c1.4,0,2.6,0,3.9,0c0-2.6,0-5.2,0-7.7c1.4,0,2.6,0,3.9,0c0,7.8,0,15.6,0,23.4c-3.9,0-7.8,0-11.7,0c0-1.3,0-2.6,0-3.9
		c-1.3,0-2.6,0-3.8,0c0-0.3,0-0.6,0-0.8c0-4.6,0-9.2,0-13.9c0-0.7-0.1-1-0.9-0.9c-1.2,0.1-2.4,0-3.6,0c-1.1,0-2.1,0-3.2,0
		c0,1.3,0,2.5,0,3.9c1.3,0,2.5,0,3.8,0c0,4,0,7.8,0,11.7c-0.2,0-0.5,0-0.7,0c-2.1,0-4.2,0-6.3,0c-0.7,0-0.9,0.2-0.9,0.9
		c0.1,1,0,2,0,3.1c-2.7,0-5.2,0-7.7,0c0,1.3,0,2.5,0,3.7c0.3,0,0.5,0,0.7,0c3.4,0,6.8,0,10.1,0c0.6,0,0.9,0.2,0.8,0.8
		c-0.1,1,0,2.1,0,3.1c1.3,0,2.5,0,3.8,0c0-2.6,0-5.2,0-7.7c1.4,0,2.6,0,3.9,0c0,1.3,0,2.5,0,3.9c2.6,0,5.2,0,7.8,0
		c0,1.3,0,2.6,0,3.9c2.6,0,5.1,0,7.7,0c0,2.6,0,5.2,0,7.9C98.3,95.7,97,95.7,95.8,95.7z"/>
	<path d="M103.4,9.7c-9.1,0-18.1,0-27.1,0c0,9.1,0,18.1,0,27.2c9.1,0,18.1,0,27.1,0C103.4,27.8,103.4,18.8,103.4,9.7z M99.6,33.1
		c-6.5,0-13,0-19.5,0c0-6.5,0-12.9,0-19.5c6.5,0,12.9,0,19.5,0C99.6,20.1,99.6,26.6,99.6,33.1z"/>
	<path d="M6,107.3c9.1,0,18.1,0,27.1,0c0-9.1,0-18.1,0-27.2c-9.1,0-18.1,0-27.1,0C6,89.2,6,98.2,6,107.3z M9.9,83.8
		c0.9,0,1.7,0,2.6,0c5.4,0,10.7,0,16.1,0c0.5,0,0.9-0.1,0.9,0.7c0,6.1,0,12.2,0,18.3c0,0.2,0,0.4,0,0.6c-6.5,0-13,0-19.5,0
		C9.9,96.9,9.9,90.4,9.9,83.8z"/>
	<path d="M33.2,9.7c-9.1,0-18.1,0-27.1,0c0,9.1,0,18.1,0,27.2c9.1,0,18.1,0,27.1,0C33.2,27.8,33.2,18.8,33.2,9.7z M28.6,33.2
		c-5.9,0-11.7,0-17.6,0c-0.3,0-0.7,0-1.1,0c0-6.6,0-13,0-19.6c6.5,0,13,0,19.5,0c0,0.6,0,1.1,0,1.6c0,5.7,0,11.4,0,17.1
		C29.4,33,29.2,33.2,28.6,33.2z"/>
	<path d="M60.7,60.5c1.3,0,2.5,0,3.9,0c0,1.3,0,2.6,0,3.9c1.3,0,2.5,0,3.8,0c0,2.1,0,4.1,0,6.1c0,1.7,0,1.7,1.7,1.7c2,0,4,0,6,0
		c0-1.3,0-2.6,0-3.9c-1.3,0-2.5,0-3.8,0c0-2.7,0-5.2,0-7.9c1.3,0,2.5,0,3.8,0c0-1.3,0-2.6,0-3.9c2.4,0,4.7,0,6.9,0
		c0.7,0,0.9-0.2,0.9-0.9c-0.1-1.9,0-3.8,0-5.7c0-1.7,0-3.4,0-5.1c1.3,0,2.6,0,3.9,0c0,1.3,0,2.5,0,3.8c1.3,0,2.5,0,3.8,0
		c0-2.6,0-5.1,0-7.7c-0.2,0-0.4,0-0.6,0c-4.6,0-9.3,0-13.9,0c-1.4,0-2.8,0-4.3,0c-0.2,0-0.6,0.2-0.6,0.3c0,1.2,0,2.3,0,3.6
		c1.4,0,2.6,0,4,0c0,1.3,0,2.6,0,3.9c1.3,0,2.6,0,3.8,0c0,1.3,0,2.6,0,4c-2.6,0-5.2,0-7.8,0c0,1.4,0,2.6,0,3.9c-3.9,0-7.7,0-11.6,0
		C60.7,57.9,60.7,59.1,60.7,60.5z"/>
	<path d="M52.8,29.2C52.8,29.2,52.8,29.2,52.8,29.2C52.8,29.2,52.8,29.2,52.8,29.2L52.8,29.2z"/>
	<path d="M41.1,17.4c1.3,0,2.5,0,3.8,0c0-1.3,0-2.5,0-3.8c1.4,0,2.6,0,4,0c0,2.6,0,5.1,0,7.8c1.3,0,2.6,0,3.9,0c0,2.7,0,5.2,0,7.8
		c1.3,0,2.5,0,3.9,0c0-1.3,0-2.6,0-3.9c2.6,0,5.1,0,7.7,0c0-1.3,0-2.6,0-3.9c-1.3,0-2.6,0-3.8,0c0-1.1,0-2.1,0-3.1
		c0-0.6-0.2-0.9-0.8-0.8c-1,0-2,0-3,0c0-1.4,0-2.6,0-3.9c1.3,0,2.6,0,3.9,0c0,1.3,0,2.5,0,3.9c1.4,0,2.6,0,3.9,0c0,1.3,0,2.6,0,3.9
		c1,0,1.9-0.1,2.9,0c0.8,0.1,1.1-0.1,1-1c-0.1-1,0-2,0-3c1.4,0,2.6,0,3.9,0c0-1.3,0-2.5,0-3.8c-2.6,0-5.2,0-7.8,0c0-1.3,0-2.6,0-3.8
		c-9.1,0-18.1,0-27.2,0c0,1.3,0,2.5,0,3.8c1.3,0,2.5,0,3.9,0C41.1,14.9,41.1,16.1,41.1,17.4z"/>
	<path d="M37.2,48.6c2.6,0,5.1,0,7.6,0c0-1.3,0-2.5,0-3.8c-1.3,0-2.5,0-3.8,0c0-5.2,0-10.4,0-15.7c1.3,0,2.5,0,3.8,0
		c0-1.3,0-2.6,0-3.9c1.3,0,2.6,0,3.8,0c0-1.3,0-2.6,0-3.8c-3.9,0-7.7,0-11.5,0C37.2,30.6,37.2,39.6,37.2,48.6z"/>
	<path d="M52.8,91.7c-2.6,0-5.1,0-7.8,0c0,1.2,0,2.2,0,3.3c0,0.2-0.2,0.6-0.3,0.6c-1.2,0-2.4,0-3.7,0c0-2.7,0-5.2,0-7.8
		c-1.3,0-2.5,0-3.8,0c0,5.2,0,10.3,0,15.5c2.6,0,5.1,0,7.7,0c0-1.3,0-2.6,0-3.9c2.6,0,5.2,0,7.8,0C52.8,96.8,52.8,94.3,52.8,91.7z"
		/>
	<path d="M60.6,99.4c2.6,0,5.1,0,7.7,0c0-1.1,0-2.2,0-3.3c0-0.2-0.3-0.5-0.5-0.5c-0.9-0.1-1.9,0-2.8,0c-0.2,0-0.5-0.2-0.5-0.4
		c0-1.2,0-2.3,0-3.6c1.1,0,2.2,0,3.3,0c0.2,0,0.6-0.2,0.6-0.3c0-1.2,0-2.3,0-3.6c-2.7,0-5.2,0-7.8,0c0-2.6,0-5.1,0-7.7
		c-1.3,0-2.5,0-3.8,0c0,1.3,0,2.5,0,3.9c-1.3,0-2.6,0-3.9,0c0,2.6,0,5.2,0,7.7c2.6,0,5.2,0,7.8,0C60.6,94.3,60.6,96.9,60.6,99.4z"/>
	<path d="M52.8,91.7C52.8,91.7,52.8,91.7,52.8,91.7C52.8,91.7,52.8,91.7,52.8,91.7L52.8,91.7C52.8,91.7,52.8,91.7,52.8,91.7
		C52.8,91.7,52.8,91.7,52.8,91.7C52.8,91.7,52.8,91.7,52.8,91.7z"/>
	<path d="M56.6,99.6c-1.3,0-2.5,0-3.9,0c0,1.3,0,2.5,0,3.9c-2.6,0-5.2,0-7.7,0c0,1.3,0,2.5,0,3.8c10.4,0,20.7,0,31,0
		c0-1.3,0-2.5,0-3.8c-6.5,0-12.9,0-19.4,0C56.6,102.1,56.6,100.9,56.6,99.6z"/>
	<path d="M84,103.4C84,103.4,84,103.4,84,103.4C84,103.5,84,103.4,84,103.4C84,103.4,84,103.4,84,103.4z"/>
	<path d="M87.9,95.5c0-1.1,0-2,0-3c0-0.6-0.2-0.8-0.8-0.8c-3.4,0-6.8,0-10.2,0c-2.6,0-5.1,0-7.7,0c-0.2,0-0.7,0.2-0.7,0.4
		c-0.1,1.1,0,2.3,0,3.5c3.9,0,7.8,0,11.7,0c0,1.4,0,2.6,0,4c-1.3,0-2.5,0-3.8,0c0,1.3,0,2.5,0,3.8c2.6,0,5.2,0,7.7,0
		c0-2.6,0-5.2,0-7.9C85.3,95.5,86.5,95.5,87.9,95.5z"/>
	<path d="M25.4,56.6C25.4,56.6,25.4,56.6,25.4,56.6L25.4,56.6C25.4,56.6,25.4,56.6,25.4,56.6z"/>
	<path d="M24.8,48.8c-1.1,0-2.1,0-3.2,0c0-1.4,0-2.7,0-4c1.3,0,2.5,0,3.8,0c0-1.3,0-2.6,0-3.8c-5.2,0-10.3,0-15.5,0
		c0,1.3,0,2.5,0,3.8c2.6,0,5.2,0,7.8,0c0,2.6,0,5.2,0,7.8c1.3,0,2.6,0,3.9,0c0,1.3,0,2.6,0,4c1.3,0,2.6,0,3.8,0c0-2.4,0-4.8,0-7.2
		C25.5,48.9,25.2,48.8,24.8,48.8z"/>
	<path d="M41,79.9c0-1.3,0-2.5,0-3.8c1.3,0,2.5,0,3.8,0c0-1.4,0-2.6,0-3.9c-2.6,0-5.1,0-7.7,0c0-2.6,0-5.1,0-7.7c-2.6,0-5.1,0-7.7,0
		c0,1.3,0,2.5,0,3.8c1.3,0,2.5,0,3.8,0c0,1.4,0,2.6,0,4c-1.3,0-2.5,0-3.8,0c0,1.3,0,2.6,0,3.9c2.6,0,5.1,0,7.7,0c0,1.3,0,2.5,0,3.8
		C38.5,79.9,39.7,79.9,41,79.9z"/>
	<path d="M68.4,29.2c-2.6,0-5.1,0-7.7,0c0,2.6,0,5.1,0,7.7c1.3,0,2.5,0,3.8,0c0-1.3,0-2.5,0-3.8c1.3,0,2.6,0,4,0c0,1.3,0,2.5,0,3.8
		c1.3,0,2.5,0,3.8,0c0-5.2,0-10.3,0-15.5c-1.3,0-2.5,0-3.8,0C68.4,24.1,68.4,26.6,68.4,29.2z"/>
	<path d="M21.5,68.2c0-1.3,0-2.5,0-3.7c-1.1,0-2.1,0-3.2,0c-0.6,0-0.8-0.2-0.7-0.8c0.1-1,0-2.1,0-3.2c-2.7,0-5.2,0-7.8,0
		c0,2.6,0,5.1,0,7.7C13.8,68.2,17.7,68.2,21.5,68.2z"/>
	<path d="M9.8,60.5C9.8,60.5,9.8,60.5,9.8,60.5C9.8,60.5,9.8,60.5,9.8,60.5C9.8,60.5,9.8,60.5,9.8,60.5z"/>
	<path d="M60.6,44c0-1.4,0-2.8,0-4.3c0-0.9,0-1.8,0-2.7c-1.3,0-2.5,0-3.8,0c0,1.3,0,2.5,0,3.8c-1.3,0-2.5,0-3.9,0
		c0,3.9,0,7.8,0,11.6c1.3,0,2.5,0,3.8,0c0-2.6,0-5.1,0-7.7c1.1,0,2.1,0,3.1,0C60.4,44.9,60.6,44.6,60.6,44z"/>
	<path d="M52.8,76C52.8,76,52.8,76,52.8,76L52.8,76C52.8,76.1,52.8,76,52.8,76z"/>
	<path d="M56.6,60.5c-1.3,0-2.5,0-3.8,0c0,1.3,0,2.6,0,3.9c-1.3,0-2.6,0-3.8,0c0,1.3,0,2.5,0,3.8c1.3,0,2.5,0,3.8,0
		c0,2.6,0,5.2,0,7.8c1.3,0,2.5,0,3.8,0C56.6,70.8,56.6,65.7,56.6,60.5z"/>
	<path d="M45,64.3c1.3,0,2.5,0,3.8,0c0-3.9,0-7.7,0-11.5c-3.9,0-7.7,0-11.5,0c0,1.3,0,2.5,0,3.7c0.4,0,0.7,0,0.9,0c2,0,4.1,0,6.1,0
		c0.6,0,0.8,0.2,0.7,0.7c0,0.8,0,1.6,0,2.4C45,61.2,45,62.7,45,64.3z"/>
	<path d="M17.6,72.2c-2.6,0-5.2,0-7.8,0c0-1.3,0-2.5,0-3.8c-1.3,0-2.5,0-3.8,0c0,2.6,0,5.1,0,7.6c3.9,0,7.7,0,11.6,0
		C17.6,74.7,17.6,73.5,17.6,72.2z"/>
	<path d="M21.6,60.5c0,1.3,0,2.5,0,3.8c2.6,0,5.1,0,7.7,0c0-1.3,0-2.5,0-3.8c1.3,0,2.6,0,3.8,0c0-1.3,0-2.6,0-3.8
		c-2.6,0-5.2,0-7.7,0c0,1.3,0,2.5,0,3.9C24.2,60.5,22.9,60.5,21.6,60.5z"/>
	<path d="M25.4,56.6C25.4,56.6,25.4,56.6,25.4,56.6C25.4,56.6,25.4,56.6,25.4,56.6C25.4,56.6,25.4,56.6,25.4,56.6z"/>
	<path d="M9.9,56.5C9.9,56.5,9.8,56.5,9.9,56.5L9.9,56.5C9.9,56.6,9.9,56.6,9.9,56.5z"/>
	<path d="M17.6,52.6c-1.3,0-2.6,0-3.9,0c0-1.3,0-2.6,0-3.8c-2.6,0-5.1,0-7.6,0c0,1.3,0,2.5,0,3.8c1.3,0,2.5,0,3.8,0
		c0,1.4,0,2.6,0,3.9c2.6,0,5.1,0,7.7,0C17.6,55.2,17.6,54,17.6,52.6z"/>
	<path d="M60.7,44.9c0,2.6,0,5.2,0,7.7c1.3,0,2.5,0,3.7,0c0-1.3,0-2.5,0-3.9c1.3,0,2.6,0,3.9,0c0-2.7,0-5.2,0-7.7
		c-1.3,0-2.5,0-3.8,0c0,1.3,0,2.5,0,3.9C63.2,44.9,61.9,44.9,60.7,44.9z"/>
	<path d="M88.6,95.6c-0.6,0-0.7,0.2-0.7,0.8c0,2.3,0,4.7,0,7c1.3,0,2.5,0,3.8,0c0-2.7,0-5.2,0-7.8C90.6,95.7,89.6,95.7,88.6,95.6z"
		/>
	<path d="M87.9,103.5C87.9,103.5,87.9,103.4,87.9,103.5C87.9,103.4,87.9,103.4,87.9,103.5L87.9,103.5z"/>
	<path d="M41.2,80.2c0,2.4-0.1,4.8-0.1,7.2c0,0.1,0.3,0.4,0.4,0.4c1.1,0,2.2,0,3.4,0c0-2.7,0-5.2,0-7.7c-1.3,0-2.5,0-3.6,0
		C41.2,80.2,41.2,80.2,41.2,80.2z"/>
	<path d="M29.4,49.2c0,1.1,0,2.2,0,3.3c2.6,0,5.1,0,7.7,0c0-1.2,0-2.2,0-3.3c0-0.2-0.3-0.4-0.5-0.5c-2.3,0-4.5,0-6.8,0
		C29.8,48.8,29.5,49.1,29.4,49.2z"/>
	<path d="M64.3,64.5c-1.3,0-2.5,0-3.7,0c0,2.6,0,5.1,0,7.7c1.1,0,2.1,0,3,0c0.6,0,0.8-0.2,0.7-0.7c0-2.2,0-4.4,0-6.6
		C64.4,64.7,64.4,64.6,64.3,64.5z"/>
	<path d="M9.8,56.5C9.8,56.6,9.8,56.6,9.8,56.5C9.8,56.6,9.9,56.6,9.8,56.5C9.9,56.6,9.8,56.5,9.8,56.5z"/>
	<path d="M6,56.6c0,1.3,0,2.6,0,3.9c1.3,0,2.5,0,3.8,0c0-1.3,0-2.6,0-3.9C8.6,56.6,7.3,56.6,6,56.6z"/>
	<path d="M9.8,60.5C9.8,60.5,9.8,60.5,9.8,60.5C9.8,60.5,9.8,60.5,9.8,60.5C9.8,60.5,9.8,60.5,9.8,60.5z"/>
	<path d="M87.9,60.5C87.9,60.5,87.9,60.4,87.9,60.5C87.9,60.4,87.9,60.4,87.9,60.5C87.9,60.4,87.9,60.5,87.9,60.5z"/>
	<path d="M84.1,56.6c0,1.3,0,2.5,0,3.8c1.3,0,2.6,0,3.8,0c0-1.3,0-2.5,0-3.8C86.5,56.6,85.3,56.6,84.1,56.6z"/>
	<path d="M99.7,103.5c0,1.3,0,2.5,0,3.8c1.3,0,2.5,0,3.8,0c0-1.3,0-2.5,0-3.8C102.2,103.5,100.9,103.5,99.7,103.5z"/>
	<path d="M52.8,76.1C52.8,76.1,52.8,76,52.8,76.1C52.8,76,52.8,76.1,52.8,76.1C52.8,76.1,52.8,76.1,52.8,76.1z"/>
	<path d="M49,79.9c1.3,0,2.5,0,3.8,0c0-1.3,0-2.6,0-3.8c-1.3,0-2.5,0-3.8,0C49,77.4,49,78.6,49,79.9z"/>
	<path d="M91.7,87.9c-1.3,0-2.5,0-3.7,0c0,1.3,0,2.5,0,3.8c1.3,0,2.5,0,3.7,0C91.7,90.4,91.7,89.1,91.7,87.9z"/>
	<path d="M52.8,29.2C52.8,29.2,52.8,29.2,52.8,29.2C52.8,29.2,52.8,29.2,52.8,29.2C52.8,29.2,52.8,29.2,52.8,29.2z"/>
	<path d="M49,33c1.3,0,2.5,0,3.8,0c0-1.3,0-2.6,0-3.8c-1.3,0-2.5,0-3.8,0C49,30.6,49,31.8,49,33z"/>
	<path d="M87.9,103.5C87.9,103.5,87.9,103.4,87.9,103.5C87.9,103.4,87.9,103.5,87.9,103.5C87.9,103.5,87.9,103.5,87.9,103.5z"/>
	<path d="M84,107.3c1.3,0,2.6,0,3.8,0c0-1.3,0-2.6,0-3.8c-1.3,0-2.6,0-3.8,0C84,104.7,84,106,84,107.3z"/>
	<path d="M84,103.5C84,103.5,84,103.5,84,103.5C84,103.4,84,103.4,84,103.5C84,103.4,84,103.5,84,103.5z"/>
	<path d="M49.4,40.9c1,0,1.9,0,2.9,0c0.2,0,0.5-0.2,0.5-0.4c0-1.1,0-2.3,0-3.4c-1.3,0-2.5,0-3.8,0c0,1.2,0,2.3,0,3.4
		C48.9,40.6,49.2,40.9,49.4,40.9z"/>
	<path d="M68,72.2c-1.1,0-2.3,0-3.4,0c0,1.3,0,2.6,0,3.8c1.3,0,2.5,0,3.8,0c0-1.2,0-2.3,0-3.4C68.3,72.5,68.1,72.2,68,72.2z"/>
	<path d="M29.3,44.8c-1.1,0-2.2,0-3.3,0c-0.2,0-0.5,0.3-0.5,0.5c0,1.1,0,2.1,0,3.3c1.3,0,2.6,0,3.8,0C29.3,47.4,29.3,46.1,29.3,44.8
		z"/>
	<path d="M57.1,52.7c-0.2,0-0.4,0.3-0.4,0.4c0,1.1,0,2.2,0,3.5c1.2,0,2.3,0,3.4,0c0.2,0,0.4-0.3,0.4-0.5c0-1.1,0-2.1,0-3.4
		C59.3,52.7,58.2,52.7,57.1,52.7z"/>
	<path d="M91.9,68.4c0,1.3,0,2.5,0,3.8c1.3,0,2.5,0,3.7,0c0-1.3,0-2.5,0-3.8C94.3,68.4,93.1,68.4,91.9,68.4z"/>
	<path d="M91.9,107.3c1.3,0,2.5,0,3.7,0c0-1.3,0-2.5,0-3.8c-1.3,0-2.5,0-3.7,0C91.9,104.8,91.9,106,91.9,107.3z"/>
	<path d="M29.4,44.4c0,0.2,0.3,0.4,0.4,0.4c1.1,0,2.2,0,3.3,0c0-1.3,0-2.6,0-3.8c-1.3,0-2.4,0-3.8,0C29.4,42.2,29.4,43.3,29.4,44.4z
		"/>
	<path d="M56.6,33.2c-1.3,0-2.5,0-3.8,0c0,1.3,0,2.5,0,3.7c1.3,0,2.5,0,3.8,0C56.6,35.6,56.6,34.5,56.6,33.2z"/>
	<path d="M41.1,68.2c1.3,0,2.5,0,3.8,0c0-1.3,0-2.5,0-3.7c-1.3,0-2.5,0-3.8,0C41.1,65.7,41.1,66.9,41.1,68.2z"/>
	<path d="M48.8,41c-1.2,0-2.4,0-3.7,0c0,1.3,0,2.5,0,3.8c1.3,0,2.5,0,3.7,0C48.8,43.5,48.8,42.3,48.8,41z"/>
	<path d="M68.5,52.6c1.3,0,2.5,0,3.7,0c0-1.3,0-2.5,0-3.7c-1.3,0-2.5,0-3.7,0C68.5,50.1,68.5,51.3,68.5,52.6z"/>
	<path d="M45.1,36.9c1.3,0,2.5,0,3.7,0c0-1.3,0-2.5,0-3.7c-1.3,0-2.5,0-3.7,0C45.1,34.5,45.1,35.7,45.1,36.9z"/>
	<path d="M95.6,17.6c-3.9,0-7.7,0-11.5,0c0,3.9,0,7.7,0,11.5c3.9,0,7.7,0,11.5,0C95.6,25.3,95.6,21.5,95.6,17.6z"/>
	<path d="M13.9,99.4c3.9,0,7.7,0,11.5,0c0-3.9,0-7.7,0-11.6c-3.9,0-7.7,0-11.5,0C13.9,91.8,13.9,95.6,13.9,99.4z"/>
	<path d="M13.9,29.1c3.9,0,7.7,0,11.5,0c0-3.9,0-7.7,0-11.5c-3.9,0-7.7,0-11.5,0C13.9,21.5,13.9,25.3,13.9,29.1z"/>
</g>
</svg>
